<?xml version="1.0" encoding="UTF-8" standalone="no"?>
<!-- Created with Inkscape (http://www.inkscape.org/) -->

<svg
   width="360pt"
   height="640pt"
   viewBox="0 0 127 225.77778"
   version="1.1"
   id="svg5"
   inkscape:version="1.1 (c4e8f9e, 2021-05-24)"
   sodipodi:docname="3.svg"
   xmlns:inkscape="http://www.inkscape.org/namespaces/inkscape"
   xmlns:sodipodi="http://sodipodi.sourceforge.net/DTD/sodipodi-0.dtd"
   xmlns="http://www.w3.org/2000/svg"
   xmlns:svg="http://www.w3.org/2000/svg">
  <sodipodi:namedview
     id="namedview7"
     pagecolor="#ffffff"
     bordercolor="#666666"
     borderopacity="1.0"
     inkscape:pageshadow="2"
     inkscape:pageopacity="0.0"
     inkscape:pagecheckerboard="0"
     inkscape:document-units="mm"
     showgrid="false"
     units="pt"
     width="360pt"
     inkscape:zoom="0.67081229"
     inkscape:cx="5.217555"
     inkscape:cy="331.68742"
     inkscape:window-width="1440"
     inkscape:window-height="855"
     inkscape:window-x="0"
     inkscape:window-y="23"
     inkscape:window-maximized="0"
     inkscape:current-layer="layer1" />
  <defs
     id="defs2">
    <rect
       x="37.26825"
       y="372.6825"
       width="387.5898"
       height="214.66512"
       id="rect2375" />
    <style
       id="style824">.cls-1{fill:#007aff;}</style>
    <clipPath
       clipPathUnits="userSpaceOnUse"
       id="clipPath1192">
      <path
         d="M 0,0 H 606 V 160 H 0 Z"
         id="path1190" />
    </clipPath>
    <clipPath
       clipPathUnits="userSpaceOnUse"
       id="clipPath1232">
      <path
         d="M 0,0 H 606 V 160 H 0 Z"
         id="path1230" />
    </clipPath>
    <clipPath
       clipPathUnits="userSpaceOnUse"
       id="clipPath1272">
      <path
         d="M 0,0 H 606 V 160 H 0 Z"
         id="path1270" />
    </clipPath>
    <clipPath
       clipPathUnits="userSpaceOnUse"
       id="clipPath1312">
      <path
         d="M 0,0 H 606 V 160 H 0 Z"
         id="path1310" />
    </clipPath>
    <clipPath
       clipPathUnits="userSpaceOnUse"
       id="clipPath1392">
      <path
         d="M 0,0 H 606 V 159 H 0 Z"
         id="path1390" />
    </clipPath>
    <clipPath
       clipPathUnits="userSpaceOnUse"
       id="clipPath1432">
      <path
         d="M 0,0 H 607 V 160 H 0 Z"
         id="path1430" />
    </clipPath>
  </defs>
  <g
     inkscape:label="Layer 1"
     inkscape:groupmode="layer"
     id="layer1">
    <g
       id="g3866"
       transform="matrix(1.5073905,0,0,1.5073905,-32.932559,-32.293013)">
      <g
         id="g1426"
         transform="matrix(0.08466666,0,0,0.08466666,37.832786,80.343513)">
        <g
           id="g1428" />
        <g
           id="g1442">
          <g
             clip-path="url(#clipPath1432)"
             opacity="0.2471"
             id="g1440">
            <g
               transform="matrix(2.9985754,0,0,2.9985754,-1615.5035,-686.505)"
               id="g1438">
              <path
                 d="m 541,230 h 198 c 0.27612,0 0.51184,0.0976 0.70709,0.29288 0.19525,0.19526 0.29285,0.43097 0.29291,0.70712 v 49.5 c -6e-5,0.27612 -0.0977,0.51181 -0.29291,0.70706 -0.19525,0.19528 -0.43097,0.29291 -0.70709,0.29294 H 541 c -0.27618,-3e-5 -0.5119,-0.0977 -0.70715,-0.29294 C 540.0976,281.01181 539.99994,280.77612 540,280.5 V 231 c -6e-5,-0.27615 0.0976,-0.51186 0.29285,-0.70712 C 540.4881,230.09763 540.72382,230 541,230 Z"
                 style="fill:#000000;fill-opacity:1;fill-rule:nonzero;stroke:none"
                 id="path1434" />
              <path
                 d="m 541,230 h 198 c 0.27612,0 0.51184,0.0976 0.70709,0.29288 0.19525,0.19526 0.29285,0.43097 0.29291,0.70712 v 49.5 c -6e-5,0.27612 -0.0977,0.51181 -0.29291,0.70706 -0.19525,0.19528 -0.43097,0.29291 -0.70709,0.29294 H 541 c -0.27618,-3e-5 -0.5119,-0.0977 -0.70715,-0.29294 C 540.0976,281.01181 539.99994,280.77612 540,280.5 V 231 c -6e-5,-0.27615 0.0976,-0.51186 0.29285,-0.70712 C 540.4881,230.09763 540.72382,230 541,230 Z"
                 style="fill:none;stroke:#000000;stroke-width:1;stroke-linecap:butt;stroke-linejoin:miter;stroke-miterlimit:10;stroke-dasharray:none;stroke-opacity:1"
                 id="path1436" />
            </g>
          </g>
        </g>
      </g>
      <g
         id="g1444"
         transform="matrix(0.25387936,0,0,0.25387936,-99.454263,21.457787)">
        <path
           d="m 541,230 h 198 c 0.27612,0 0.51184,0.0976 0.70709,0.29288 0.19525,0.19526 0.29285,0.43097 0.29291,0.70712 v 49.5 c -6e-5,0.27612 -0.0977,0.51181 -0.29291,0.70706 -0.19525,0.19528 -0.43097,0.29291 -0.70709,0.29294 H 541 c -0.27618,-3e-5 -0.5119,-0.0977 -0.70715,-0.29294 C 540.0976,281.01181 539.99994,280.77612 540,280.5 V 231 c -6e-5,-0.27615 0.0976,-0.51186 0.29285,-0.70712 C 540.4881,230.09763 540.72382,230 541,230 Z"
           style="fill:#ffffff;fill-opacity:1;fill-rule:nonzero;stroke:none"
           id="path1446" />
        <path
           d="m 541,230 h 198 c 0.27612,0 0.51184,0.0976 0.70709,0.29288 0.19525,0.19526 0.29285,0.43097 0.29291,0.70712 v 49.5 c -6e-5,0.27612 -0.0977,0.51181 -0.29291,0.70706 -0.19525,0.19528 -0.43097,0.29291 -0.70709,0.29294 H 541 c -0.27618,-3e-5 -0.5119,-0.0977 -0.70715,-0.29294 C 540.0976,281.01181 539.99994,280.77612 540,280.5 V 231 c -6e-5,-0.27615 0.0976,-0.51186 0.29285,-0.70712 C 540.4881,230.09763 540.72382,230 541,230 Z"
           style="fill:none;stroke:#dddddd;stroke-width:1;stroke-linecap:butt;stroke-linejoin:miter;stroke-miterlimit:10;stroke-dasharray:none;stroke-opacity:1"
           id="path1448" />
        <path
           d="m 561.19,269.01001 c -0.98999,0 -1.92999,-0.54001 -2.41998,-1.56 L 553,257.04999 c -0.52002,-0.90998 -0.44,-1.96999 0,-2.71999 l 5.82001,-10.41 c 0.48999,-0.94 1.38,-1.42999 2.27002,-1.42999 h 11.69 c 0.86999,0 1.72998,0.43998 2.23999,1.33 l 5.79999,10.39 c 0.70001,1.09999 0.46002,2.27 0.06,2.91999 l -5.76,10.34 c -0.39002,0.82999 -1.26001,1.54001 -2.38001,1.54001 h -11.54999 z"
           style="fill:#5184f3;fill-opacity:1;fill-rule:nonzero;stroke:none"
           id="path1450" />
        <path
           d="m 571.88,269.01001 -9.79998,-10.11002 1.55999,-2.38998 -1.55999,-1.40001 9.76001,-2.5 7.33996,7.56999 L 575.12,267.47 c -0.39002,0.82999 -1.26001,1.54001 -2.38001,1.54001 z"
           style="fill:#000000;fill-opacity:0.0706;fill-rule:nonzero;stroke:none"
           id="path1452" />
        <path
           d="m 570.19,254.35001 c 0.27002,0 0.45001,-0.23001 0.45001,-0.5 0,-0.40001 -0.23004,-0.53 -0.44,-0.53 -0.35998,0 -0.54004,0.22999 -0.54004,0.5 0,0.30999 0.23004,0.53 0.53003,0.53 z M 562.26001,255.2 c -0.12,0 -0.28003,-0.12999 -0.28003,-0.27001 V 252.84 c 0,-0.23999 0.15002,-0.32 0.41003,-0.32 H 571.56 c 0.22003,0 0.36999,0.05 0.36999,0.37 v 1.92 c 0,0.21 -0.11999,0.39 -0.36999,0.39 z m 7.90997,2.99 c 0.27002,0 0.5,-0.26999 0.5,-0.53 0,-0.30001 -0.17999,-0.51001 -0.5,-0.51001 -0.29998,0 -0.51001,0.17002 -0.51001,0.52002 0,0.23999 0.21003,0.51999 0.51001,0.51999 z m -7.80999,0.79999 c -0.23999,0 -0.38001,-0.13 -0.38001,-0.31998 v -2.03 c 0,-0.20001 0.12,-0.33001 0.37,-0.33001 h 9.13 c 0.32001,0 0.45001,0.09 0.45001,0.41 v 1.76999 c 0,0.32001 -0.13,0.5 -0.41998,0.5 z"
           style="fill:#ffffff;fill-opacity:1;fill-rule:nonzero;stroke:none"
           id="path1454" />
      </g>
      <g
         id="g1456"
         transform="matrix(0.25387936,0,0,0.25387936,-99.581203,21.330847)">
        <text
           transform="translate(596,254)"
           style="font-variant:normal;font-weight:normal;font-size:12px;font-family:Helvetica;-inkscape-font-specification:Helvetica;writing-mode:lr-tb;fill:#000000;fill-opacity:1;fill-rule:nonzero;stroke:none"
           id="text1460"><tspan
             x="0 8.6660156 15.339844"
             y="0"
             sodipodi:role="line"
             id="tspan1458">N4Y</tspan></text>
        <text
           transform="translate(596,268)"
           style="font-variant:normal;font-weight:normal;font-size:12px;font-family:Helvetica;-inkscape-font-specification:Helvetica;writing-mode:lr-tb;fill:#999999;fill-opacity:1;fill-rule:nonzero;stroke:none"
           id="text1464"><tspan
             x="0 8.0039062 14.677734 21.351562 28.025391 34.025391 40.699219 47.373047 50.707031 54.041016 62.044922 64.710938 71.384766 77.384766 83.384766 86.71875 94.722656 98.71875 105.39258 112.06641 118.74023 124.74023 131.41406"
             y="0"
             sodipodi:role="line"
             id="tspan1462">Snapshot Block Producer</tspan></text>
      </g>
      <g
         id="g1466"
         transform="matrix(0.25387936,0,0,0.25387936,-99.454263,21.457787)">
        <path
           d="m 660,110 h 40 l 20,20 v 38 h -40 l -20,-20 z"
           style="fill:#dae8fc;fill-opacity:1;fill-rule:nonzero;stroke:none"
           id="path1468" />
        <path
           d="m 660,110 h 40 l 20,20 v 38 h -40 l -20,-20 z"
           style="fill:none;stroke:#6c8ebf;stroke-width:1;stroke-linecap:butt;stroke-linejoin:miter;stroke-miterlimit:10;stroke-dasharray:none;stroke-opacity:1"
           id="path1470" />
        <path
           d="m 660,110 h 40 l 20,20 h -40 z"
           style="fill:#000000;fill-opacity:0.051;fill-rule:nonzero;stroke:none"
           id="path1472" />
        <path
           d="m 660,110 20,20 v 38 l -20,-20 z"
           style="fill:#000000;fill-opacity:0.102;fill-rule:nonzero;stroke:none"
           id="path1474" />
        <path
           d="m 680,168 v -38 l -20,-20 m 20,20 h 40"
           style="fill:none;stroke:#6c8ebf;stroke-width:1;stroke-linecap:butt;stroke-linejoin:miter;stroke-miterlimit:10;stroke-dasharray:none;stroke-opacity:1"
           id="path1476" />
        <path
           d="m 590,84 h 40 l 20,20 v 38 h -40 l -20,-20 z"
           style="fill:#dae8fc;fill-opacity:1;fill-rule:nonzero;stroke:none"
           id="path1478" />
        <path
           d="m 590,84 h 40 l 20,20 v 38 h -40 l -20,-20 z"
           style="fill:none;stroke:#6c8ebf;stroke-width:1;stroke-linecap:butt;stroke-linejoin:miter;stroke-miterlimit:10;stroke-dasharray:none;stroke-opacity:1"
           id="path1480" />
        <path
           d="m 590,84 h 40 l 20,20 h -40 z"
           style="fill:#000000;fill-opacity:0.051;fill-rule:nonzero;stroke:none"
           id="path1482" />
        <path
           d="m 590,84 20,20 v 38 l -20,-20 z"
           style="fill:#000000;fill-opacity:0.102;fill-rule:nonzero;stroke:none"
           id="path1484" />
        <path
           d="M 610,142 V 104 L 590,84 m 20,20 h 40"
           style="fill:none;stroke:#6c8ebf;stroke-width:1;stroke-linecap:butt;stroke-linejoin:miter;stroke-miterlimit:10;stroke-dasharray:none;stroke-opacity:1"
           id="path1486" />
        <path
           d="m 540,84 h 40 l 20,20 v 38 h -40 l -20,-20 z"
           style="fill:#dae8fc;fill-opacity:1;fill-rule:nonzero;stroke:none"
           id="path1488" />
        <path
           d="m 540,84 h 40 l 20,20 v 38 h -40 l -20,-20 z"
           style="fill:none;stroke:#6c8ebf;stroke-width:1;stroke-linecap:butt;stroke-linejoin:miter;stroke-miterlimit:10;stroke-dasharray:none;stroke-opacity:1"
           id="path1490" />
        <path
           d="m 540,84 h 40 l 20,20 h -40 z"
           style="fill:#000000;fill-opacity:0.051;fill-rule:nonzero;stroke:none"
           id="path1492" />
        <path
           d="m 540,84 20,20 v 38 l -20,-20 z"
           style="fill:#000000;fill-opacity:0.102;fill-rule:nonzero;stroke:none"
           id="path1494" />
        <path
           d="M 560,142 V 104 L 540,84 m 20,20 h 40"
           style="fill:none;stroke:#6c8ebf;stroke-width:1;stroke-linecap:butt;stroke-linejoin:miter;stroke-miterlimit:10;stroke-dasharray:none;stroke-opacity:1"
           id="path1496" />
        <path
           d="m 490,84 h 40 l 20,20 v 38 h -40 l -20,-20 z"
           style="fill:#dae8fc;fill-opacity:1;fill-rule:nonzero;stroke:none"
           id="path1498" />
        <path
           d="m 490,84 h 40 l 20,20 v 38 h -40 l -20,-20 z"
           style="fill:none;stroke:#6c8ebf;stroke-width:1;stroke-linecap:butt;stroke-linejoin:miter;stroke-miterlimit:10;stroke-dasharray:none;stroke-opacity:1"
           id="path1500" />
        <path
           d="m 490,84 h 40 l 20,20 h -40 z"
           style="fill:#000000;fill-opacity:0.051;fill-rule:nonzero;stroke:none"
           id="path1502" />
        <path
           d="m 490,84 20,20 v 38 l -20,-20 z"
           style="fill:#000000;fill-opacity:0.102;fill-rule:nonzero;stroke:none"
           id="path1504" />
        <path
           d="M 510,142 V 104 L 490,84 m 20,20 h 40"
           style="fill:none;stroke:#6c8ebf;stroke-width:1;stroke-linecap:butt;stroke-linejoin:miter;stroke-miterlimit:10;stroke-dasharray:none;stroke-opacity:1"
           id="path1506" />
        <path
           d="m 640,84 h 100 v 94 H 640 Z"
           style="fill:none;stroke:#000050;stroke-width:1;stroke-linecap:butt;stroke-linejoin:miter;stroke-miterlimit:10;stroke-dasharray:none;stroke-opacity:1"
           id="path1508" />
      </g>
      <g
         id="g1510"
         transform="matrix(0.25387936,0,0,0.25387936,-99.581203,21.330847)"
         style="fill:#000080">
        <text
           transform="translate(661.65625,105)"
           style="font-variant:normal;font-weight:normal;font-size:12px;font-family:Helvetica;-inkscape-font-specification:Helvetica;writing-mode:lr-tb;fill:#000080;fill-opacity:1;fill-rule:nonzero;stroke:none"
           id="text1514"><tspan
             x="0 8.6660156 15.339844 24.005859 27.339844 35.34375 38.009766 44.683594 50.683594"
             y="0"
             sodipodi:role="line"
             id="tspan1512">New Block</tspan></text>
      </g>
      <g
         id="g1516"
         transform="matrix(0,-0.25387936,0.25387936,0,16.822484,240.30179)">
        <path
           d="m 640,187.67 h 16.79999 V 180.5 L 680,202 656.79999,223.5 v -7.17 H 640 Z"
           style="fill:#fff2cc;fill-opacity:1;fill-rule:nonzero;stroke:none"
           id="path1518" />
        <path
           d="m 640,187.67 h 16.79999 V 180.5 L 680,202 656.79999,223.5 v -7.17 H 640 Z"
           style="fill:none;stroke:#d6b656;stroke-width:1;stroke-linecap:butt;stroke-linejoin:miter;stroke-miterlimit:10;stroke-dasharray:none;stroke-opacity:1"
           id="path1520" />
      </g>
      <g
         id="g1522"
         transform="matrix(0.25387936,0,0,0.25387936,-99.581203,21.330847)">
        <path
           d="m 522,116 h 106 v 16 H 522 Z"
           style="fill:#cce5ff;fill-opacity:1;fill-rule:nonzero;stroke:none"
           id="path1524" />
        <path
           d="m 522.5,116.5 h 105 v 15 h -105 z"
           style="fill:none;stroke:#004c99;stroke-width:1;stroke-linecap:butt;stroke-linejoin:miter;stroke-miterlimit:10;stroke-dasharray:none;stroke-opacity:1"
           id="path1526" />
        <text
           transform="translate(522.65625,128)"
           style="font-variant:normal;font-weight:bold;font-size:12px;font-family:Helvetica;-inkscape-font-specification:Helvetica-Bold;writing-mode:lr-tb;fill:#004c99;fill-opacity:1;fill-rule:nonzero;stroke:none"
           id="text1530"><tspan
             x="0 3.3339844 6.6679688 14.671875 22.001953 28.675781 36.005859 42.679688 50.009766 57.339844 61.335938 64.669922 73.335938 80.666016 87.339844 90.673828 98.003906 101.33789"
             y="0"
             sodipodi:role="line"
             id="tspan1528">  Snapshot Chain. </tspan></text>
      </g>
      <g
         id="g1578"
         transform="matrix(0,0.25387936,-0.25387936,0,134.62251,-110.05173)">
        <path
           d="m 700,187.67 h 16.79999 V 180.5 L 740,202 716.79999,223.5 v -7.17 H 700 Z"
           style="fill:#d5e8d4;fill-opacity:1;fill-rule:nonzero;stroke:none"
           id="path1580" />
        <path
           d="m 700,187.67 h 16.79999 V 180.5 L 740,202 716.79999,223.5 v -7.17 H 700 Z"
           style="fill:none;stroke:#82b366;stroke-width:1;stroke-linecap:butt;stroke-linejoin:miter;stroke-miterlimit:10;stroke-dasharray:none;stroke-opacity:1"
           id="path1582" />
      </g>
      <text
         style="font-variant:normal;font-weight:normal;font-size:3.80819px;font-family:Helvetica;-inkscape-font-specification:Helvetica;writing-mode:lr-tb;fill:#004c99;fill-opacity:1;fill-rule:nonzero;stroke:none;stroke-width:0.25388"
         id="text1656"
         x="42.269928"
         y="71.852829"><tspan
           x="42.269928 44.387856 45.4459 46.503937 49.043968 50.312126 52.430065 54.547993 56.665932 58.570023"
           y="71.852829"
           sodipodi:role="line"
           id="tspan1654"
           style="stroke-width:0.25388">1. Produce</tspan></text>
      <text
         style="font-variant:normal;font-weight:normal;font-size:3.80819px;font-family:Helvetica;-inkscape-font-specification:Helvetica;writing-mode:lr-tb;fill:#004c99;fill-opacity:1;fill-rule:nonzero;stroke:none;stroke-width:0.25388"
         id="text1660"
         x="46.819916"
         y="76.422668"><tspan
           x="46.819916 49.359947 50.206005 52.323944 54.228031"
           y="76.422668"
           sodipodi:role="line"
           id="tspan1658"
           style="stroke-width:0.25388">Block</tspan></text>
      <text
         style="font-variant:normal;font-weight:normal;font-size:3.80819px;font-family:Helvetica;-inkscape-font-specification:Helvetica;writing-mode:lr-tb;fill:#004c99;fill-opacity:1;fill-rule:nonzero;stroke:none;stroke-width:0.25388"
         id="text1664"
         x="91.034599"
         y="71.852829"><tspan
           x="91.034599 93.152527 94.210571 95.268616 97.808632 99.926582 101.19473"
           y="71.852829"
           sodipodi:role="line"
           id="tspan1662"
           style="stroke-width:0.25388">2. Earn</tspan></text>
      <text
         style="font-variant:normal;font-weight:normal;font-size:3.80819px;font-family:Helvetica;-inkscape-font-specification:Helvetica;writing-mode:lr-tb;fill:#004c99;fill-opacity:1;fill-rule:nonzero;stroke:none;stroke-width:0.25388"
         id="text1668"
         x="89.662056"
         y="76.422668"><tspan
           x="89.662056 92.412209 94.530136 97.280296 99.398224 100.66638 102.78433"
           y="76.422668"
           sodipodi:role="line"
           id="tspan1666"
           style="stroke-width:0.25388">Rewards</tspan></text>
    </g>
  </g>
</svg>
