<?xml version="1.0" encoding="UTF-8" standalone="no"?>
<!-- Created with Inkscape (http://www.inkscape.org/) -->

<svg
   width="360pt"
   height="640pt"
   viewBox="0 0 127 225.77778"
   version="1.1"
   id="svg5"
   inkscape:version="1.1 (c4e8f9e, 2021-05-24)"
   sodipodi:docname="4.svg"
   xmlns:inkscape="http://www.inkscape.org/namespaces/inkscape"
   xmlns:sodipodi="http://sodipodi.sourceforge.net/DTD/sodipodi-0.dtd"
   xmlns="http://www.w3.org/2000/svg"
   xmlns:svg="http://www.w3.org/2000/svg">
  <sodipodi:namedview
     id="namedview7"
     pagecolor="#ffffff"
     bordercolor="#666666"
     borderopacity="1.0"
     inkscape:pageshadow="2"
     inkscape:pageopacity="0.0"
     inkscape:pagecheckerboard="0"
     inkscape:document-units="mm"
     showgrid="false"
     units="pt"
     width="360pt"
     inkscape:zoom="0.67081229"
     inkscape:cx="-125.96668"
     inkscape:cy="477.77896"
     inkscape:window-width="1440"
     inkscape:window-height="855"
     inkscape:window-x="0"
     inkscape:window-y="23"
     inkscape:window-maximized="0"
     inkscape:current-layer="layer1" />
  <defs
     id="defs2">
    <rect
       x="37.26825"
       y="372.6825"
       width="387.5898"
       height="214.66512"
       id="rect2375" />
    <style
       id="style824">.cls-1{fill:#007aff;}</style>
    <clipPath
       clipPathUnits="userSpaceOnUse"
       id="clipPath1192">
      <path
         d="M 0,0 H 606 V 160 H 0 Z"
         id="path1190" />
    </clipPath>
    <clipPath
       clipPathUnits="userSpaceOnUse"
       id="clipPath1232">
      <path
         d="M 0,0 H 606 V 160 H 0 Z"
         id="path1230" />
    </clipPath>
    <clipPath
       clipPathUnits="userSpaceOnUse"
       id="clipPath1272">
      <path
         d="M 0,0 H 606 V 160 H 0 Z"
         id="path1270" />
    </clipPath>
    <clipPath
       clipPathUnits="userSpaceOnUse"
       id="clipPath1312">
      <path
         d="M 0,0 H 606 V 160 H 0 Z"
         id="path1310" />
    </clipPath>
    <clipPath
       clipPathUnits="userSpaceOnUse"
       id="clipPath1392">
      <path
         d="M 0,0 H 606 V 159 H 0 Z"
         id="path1390" />
    </clipPath>
    <clipPath
       clipPathUnits="userSpaceOnUse"
       id="clipPath1432">
      <path
         d="M 0,0 H 607 V 160 H 0 Z"
         id="path1430" />
    </clipPath>
  </defs>
  <g
     inkscape:label="Layer 1"
     inkscape:groupmode="layer"
     id="layer1">
    <g
       id="g4579"
       transform="matrix(1.4243945,0,0,1.4243945,-7.7423731,-46.727858)">
      <path
         d="M 9.0765141,90.732785 H 90.31791 V 131.35349 H 9.0765141 Z"
         style="fill:none;stroke:#000000;stroke-width:0.25388;stroke-linecap:butt;stroke-linejoin:miter;stroke-miterlimit:10;stroke-dasharray:none;stroke-opacity:1"
         id="path1178" />
      <path
         d="M 9.0765141,39.703032 H 90.31791 V 80.323735 H 9.0765141 Z"
         style="fill:none;stroke:#000000;stroke-width:0.25388;stroke-linecap:butt;stroke-linejoin:miter;stroke-miterlimit:10;stroke-dasharray:none;stroke-opacity:1"
         id="path1180" />
      <g
         id="g1532"
         transform="matrix(0.25387936,0,0,0.25387936,-117.86317,-46.615949)">
        <path
           d="m 658,425.5 47.96002,-14.14001 c 7.19,24.38 -5.06,50.27001 -28.47003,60.18002 -23.39996,9.91 -50.51001,0.69 -63.02002,-21.44 -12.5,-22.12 -6.41998,-50.11002 14.14002,-65.05002 z"
           style="fill:#dae8fc;fill-opacity:1;fill-rule:nonzero;stroke:none"
           id="path1534" />
        <path
           d="m 658,425.5 47.96002,-14.14001 c 7.19,24.38 -5.06,50.27001 -28.47003,60.18002 -23.39996,9.91 -50.51001,0.69 -63.02002,-21.44 -12.5,-22.12 -6.41998,-50.11002 14.14002,-65.05002 z"
           style="fill:none;stroke:#6c8ebf;stroke-width:1;stroke-linecap:butt;stroke-linejoin:miter;stroke-miterlimit:10;stroke-dasharray:none;stroke-opacity:1"
           id="path1536" />
        <path
           d="m 662,414.5 -27.47998,-41.76999 c 13.01996,-8.57001 29.28998,-10.57001 44,-5.42001 14.69995,5.14001 26.16998,16.86001 31.01001,31.67001 z"
           style="fill:#f8cecc;fill-opacity:1;fill-rule:nonzero;stroke:none"
           id="path1538" />
        <path
           d="m 662,414.5 -27.47998,-41.76999 c 13.01996,-8.57001 29.28998,-10.57001 44,-5.42001 14.69995,5.14001 26.16998,16.86001 31.01001,31.67001 z"
           style="fill:none;stroke:#b85450;stroke-width:1;stroke-linecap:butt;stroke-linejoin:miter;stroke-miterlimit:10;stroke-dasharray:none;stroke-opacity:1"
           id="path1540" />
      </g>
      <g
         id="g1542"
         transform="matrix(0.25387936,0,0,0.25387936,-117.99011,-46.742889)">
        <text
           transform="translate(529.17188,427)"
           style="font-variant:normal;font-weight:normal;font-size:15px;font-family:Helvetica;-inkscape-font-specification:Helvetica;writing-mode:lr-tb;fill:#333333;fill-opacity:1;fill-rule:nonzero;stroke:none"
           id="text1546"><tspan
             x="0 10.83252 18.33252 26.674805"
             y="0"
             sodipodi:role="line"
             id="tspan1544">User</tspan></text>
        <text
           transform="translate(526.23438,445)"
           style="font-variant:normal;font-weight:normal;font-size:15px;font-family:Helvetica;-inkscape-font-specification:Helvetica;writing-mode:lr-tb;fill:#333333;fill-opacity:1;fill-rule:nonzero;stroke:none"
           id="text1550"><tspan
             x="0 9.1845703 17.526855 21.694336 30.036621"
             y="0"
             sodipodi:role="line"
             id="tspan1548">Votes</tspan></text>
      </g>
      <g
         id="g1552"
         transform="matrix(0.25387936,0,0,0.25387936,-117.86317,-46.615949)">
        <path
           d="m 562,431.5 c 0,0 11.87665,0 35.63,0"
           style="fill:none;stroke:#000000;stroke-width:1;stroke-linecap:butt;stroke-linejoin:miter;stroke-miterlimit:10;stroke-dasharray:none;stroke-opacity:1"
           id="path1554" />
        <path
           d="m 602.88,431.5 -7,3.5 1.75,-3.5 -1.75,-3.5 z"
           style="fill:#000000;fill-opacity:1;fill-rule:nonzero;stroke:none"
           id="path1556" />
        <path
           d="m 602.88,431.5 -7,3.5 1.75,-3.5 -1.75,-3.5 z"
           style="fill:none;stroke:#000000;stroke-width:1;stroke-linecap:butt;stroke-linejoin:miter;stroke-miterlimit:10;stroke-dasharray:none;stroke-opacity:1"
           id="path1558" />
      </g>
      <g
         id="g1560"
         transform="matrix(0.25387936,0,0,0.25387936,-117.99011,-46.742889)">
        <text
           transform="translate(759.98438,397)"
           style="font-variant:normal;font-weight:normal;font-size:15px;font-family:Helvetica;-inkscape-font-specification:Helvetica;writing-mode:lr-tb;fill:#333333;fill-opacity:1;fill-rule:nonzero;stroke:none"
           id="text1564"><tspan
             x="0 10.004883 20.009766"
             y="0"
             sodipodi:role="line"
             id="tspan1562">SBP</tspan></text>
        <text
           transform="translate(756.21875,415)"
           style="font-variant:normal;font-weight:normal;font-size:15px;font-family:Helvetica;-inkscape-font-specification:Helvetica;writing-mode:lr-tb;fill:#333333;fill-opacity:1;fill-rule:nonzero;stroke:none"
           id="text1568"><tspan
             x="0 9.1845703 17.526855 21.694336 30.036621"
             y="0"
             sodipodi:role="line"
             id="tspan1566">Votes</tspan></text>
      </g>
      <g
         id="g1570"
         transform="matrix(0.25387936,0,0,0.25387936,-117.86317,-46.615949)">
        <path
           d="m 754,399.20999 c -21.33331,-0.007 -33.21002,-0.01 -35.63,-0.01"
           style="fill:none;stroke:#000000;stroke-width:1;stroke-linecap:butt;stroke-linejoin:miter;stroke-miterlimit:10;stroke-dasharray:none;stroke-opacity:1"
           id="path1572" />
        <path
           d="m 713.12,399.20999 6.98999,-3.50998 -1.73999,3.5 1.75,3.5 z"
           style="fill:#000000;fill-opacity:1;fill-rule:nonzero;stroke:none"
           id="path1574" />
        <path
           d="m 713.12,399.20999 6.98999,-3.50998 -1.73999,3.5 1.75,3.5 z"
           style="fill:none;stroke:#000000;stroke-width:1;stroke-linecap:butt;stroke-linejoin:miter;stroke-miterlimit:10;stroke-dasharray:none;stroke-opacity:1"
           id="path1576" />
      </g>
      <g
         id="g1584"
         transform="matrix(0.25387936,0,0,0.25387936,-117.86317,-46.615949)">
        <path
           d="m 657,631 -6.33002,49.59998 C 630.34003,678 613.65002,663.26001 608.56,643.40002 c -5.08002,-19.85003 2.47003,-40.80004 19.04999,-52.85003 z"
           style="fill:#dae8fc;fill-opacity:1;fill-rule:nonzero;stroke:none"
           id="path1586" />
        <path
           d="m 657,631 -6.33002,49.59998 C 630.34003,678 613.65002,663.26001 608.56,643.40002 c -5.08002,-19.85003 2.47003,-40.80004 19.04999,-52.85003 z"
           style="fill:none;stroke:#6c8ebf;stroke-width:1;stroke-linecap:butt;stroke-linejoin:miter;stroke-miterlimit:10;stroke-dasharray:none;stroke-opacity:1"
           id="path1588" />
        <path
           d="m 674,630 -11.66998,-48.62 c 19.25,-4.61999 39.40997,2.54999 51.41998,18.28998 12.01001,15.73999 13.59998,37.08002 4.06,54.43 -9.53998,17.34002 -28.41999,27.43005 -48.14002,25.71002 z"
           style="fill:#f8cecc;fill-opacity:1;fill-rule:nonzero;stroke:none"
           id="path1590" />
        <path
           d="m 674,630 -11.66998,-48.62 c 19.25,-4.61999 39.40997,2.54999 51.41998,18.28998 12.01001,15.73999 13.59998,37.08002 4.06,54.43 -9.53998,17.34002 -28.41999,27.43005 -48.14002,25.71002 z"
           style="fill:none;stroke:#b85450;stroke-width:1;stroke-linecap:butt;stroke-linejoin:miter;stroke-miterlimit:10;stroke-dasharray:none;stroke-opacity:1"
           id="path1592" />
        <path
           d="m 663,625 -29.76001,-40.17999 c 5.60004,-4.14002 12,-7.08002 18.79999,-8.60004 z"
           style="fill:#f5f5f5;fill-opacity:1;fill-rule:nonzero;stroke:none"
           id="path1594" />
        <path
           d="m 663,625 -29.76001,-40.17999 c 5.60004,-4.14002 12,-7.08002 18.79999,-8.60004 z"
           style="fill:none;stroke:#666666;stroke-width:1;stroke-linecap:butt;stroke-linejoin:miter;stroke-miterlimit:10;stroke-dasharray:none;stroke-opacity:1"
           id="path1596" />
      </g>
      <g
         id="g1598"
         transform="matrix(0.25387936,0,0,0.25387936,-117.99011,-46.742889)">
        <text
           transform="translate(765,622)"
           style="font-variant:normal;font-weight:normal;font-size:15px;font-family:Helvetica;-inkscape-font-specification:Helvetica;writing-mode:lr-tb;fill:#333333;fill-opacity:1;fill-rule:nonzero;stroke:none"
           id="text1602"><tspan
             x="0 10.004883 20.009766"
             y="0"
             sodipodi:role="line"
             id="tspan1600">SBP</tspan></text>
        <text
           transform="translate(749.98438,640)"
           style="font-variant:normal;font-weight:normal;font-size:15px;font-family:Helvetica;-inkscape-font-specification:Helvetica;writing-mode:lr-tb;fill:#333333;fill-opacity:1;fill-rule:nonzero;stroke:none"
           id="text1606"><tspan
             x="0 10.83252 19.174805 26.674805 35.01709 43.359375 51.70166"
             y="0"
             sodipodi:role="line"
             id="tspan1604">Revenue</tspan></text>
      </g>
      <g
         id="g1608"
         transform="matrix(0.25387936,0,0,0.25387936,-117.86317,-46.615949)">
        <path
           d="m 750,626 c 0,0 -4.87665,0 -14.63,0"
           style="fill:none;stroke:#000000;stroke-width:1;stroke-linecap:butt;stroke-linejoin:miter;stroke-miterlimit:10;stroke-dasharray:none;stroke-opacity:1"
           id="path1610" />
        <path
           d="m 730.12,626 7,-3.5 -1.75,3.5 1.75,3.5 z"
           style="fill:#000000;fill-opacity:1;fill-rule:nonzero;stroke:none"
           id="path1612" />
        <path
           d="m 730.12,626 7,-3.5 -1.75,3.5 1.75,3.5 z"
           style="fill:none;stroke:#000000;stroke-width:1;stroke-linecap:butt;stroke-linejoin:miter;stroke-miterlimit:10;stroke-dasharray:none;stroke-opacity:1"
           id="path1614" />
      </g>
      <g
         id="g1616"
         transform="matrix(0.25387936,0,0,0.25387936,-117.99011,-46.742889)">
        <text
           transform="translate(530.48438,640)"
           style="font-variant:normal;font-weight:normal;font-size:15px;font-family:Helvetica;-inkscape-font-specification:Helvetica;writing-mode:lr-tb;fill:#333333;fill-opacity:1;fill-rule:nonzero;stroke:none"
           id="text1620"><tspan
             x="0 9.1845703 17.526855 21.694336 30.036621"
             y="0"
             sodipodi:role="line"
             id="tspan1618">Voter</tspan></text>
        <text
           transform="translate(514.65625,658)"
           style="font-variant:normal;font-weight:normal;font-size:15px;font-family:Helvetica;-inkscape-font-specification:Helvetica;writing-mode:lr-tb;fill:#333333;fill-opacity:1;fill-rule:nonzero;stroke:none"
           id="text1624"><tspan
             x="0 10.004883 18.347168 25.847168 38.342285 46.68457 55.026855 59.194336"
             y="0"
             sodipodi:role="line"
             id="tspan1622">Payments</tspan></text>
      </g>
      <g
         id="g1626"
         transform="matrix(0.25387936,0,0,0.25387936,-117.86317,-46.615949)">
        <path
           d="m 578,644 c 13.33331,0 20.88,-0.0267 22.64001,-0.08"
           style="fill:none;stroke:#000000;stroke-width:1;stroke-linecap:butt;stroke-linejoin:miter;stroke-miterlimit:10;stroke-dasharray:none;stroke-opacity:1"
           id="path1628" />
        <path
           d="m 605.88,643.75 -6.88,3.71997 1.64001,-3.54999 -1.86999,-3.45001 z"
           style="fill:#000000;fill-opacity:1;fill-rule:nonzero;stroke:none"
           id="path1630" />
        <path
           d="m 605.88,643.75 -6.88,3.71997 1.64001,-3.54999 -1.86999,-3.45001 z"
           style="fill:none;stroke:#000000;stroke-width:1;stroke-linecap:butt;stroke-linejoin:miter;stroke-miterlimit:10;stroke-dasharray:none;stroke-opacity:1"
           id="path1632" />
        <path
           d="m 595,558 c 30,0 45,4.21002 45,12.63"
           style="fill:none;stroke:#000000;stroke-width:1;stroke-linecap:butt;stroke-linejoin:miter;stroke-miterlimit:10;stroke-dasharray:none;stroke-opacity:1"
           id="path1634" />
        <path
           d="m 640,575.88 -3.5,-7 3.5,1.75 3.5,-1.75 z"
           style="fill:#000000;fill-opacity:1;fill-rule:nonzero;stroke:none"
           id="path1636" />
        <path
           d="m 640,575.88 -3.5,-7 3.5,1.75 3.5,-1.75 z"
           style="fill:none;stroke:#000000;stroke-width:1;stroke-linecap:butt;stroke-linejoin:miter;stroke-miterlimit:10;stroke-dasharray:none;stroke-opacity:1"
           id="path1638" />
      </g>
      <text
         style="font-variant:normal;font-weight:normal;font-size:3.80819px;font-family:Helvetica;-inkscape-font-specification:Helvetica;writing-mode:lr-tb;fill:#333333;fill-opacity:1;fill-rule:nonzero;stroke:none;stroke-width:0.25388"
         id="text1644"
         x="15.820181"
         y="95.937317"><tspan
           x="15.820181 18.360212 20.264303 22.382238 24.500181 26.618109 28.522207 30.640127"
           y="95.937317"
           sodipodi:role="line"
           id="tspan1642"
           style="stroke-width:0.25388">Expenses</tspan></text>
      <text
         style="font-variant:normal;font-weight:normal;font-size:3.80819px;font-family:Helvetica;-inkscape-font-specification:Helvetica;writing-mode:lr-tb;fill:#004c99;fill-opacity:1;fill-rule:nonzero;stroke:none;stroke-width:0.25388"
         id="text1648"
         x="38.348015"
         y="38.560577"><tspan
           x="38.348015 41.098167 43.216103 45.334038 46.392067 47.66024 48.506294 50.624214 52.742149 53.800194 54.646263 56.764198 58.882118"
           y="38.560577"
           sodipodi:role="line"
           id="tspan1646"
           style="stroke-width:0.25388">Contributions</tspan></text>
      <text
         style="font-variant:normal;font-weight:normal;font-size:3.80819px;font-family:Helvetica;-inkscape-font-specification:Helvetica;writing-mode:lr-tb;fill:#004c99;fill-opacity:1;fill-rule:nonzero;stroke:none;stroke-width:0.25388"
         id="text1652"
         x="37.395966"
         y="89.336456"><tspan
           x="37.395966 40.146126 42.264046 45.014198 47.132149 48.400291 50.518227 51.576256 54.11631 56.234245 58.352165 59.620323"
           y="89.336456"
           sodipodi:role="line"
           id="tspan1650"
           style="stroke-width:0.25388">Reward Share</tspan></text>
    </g>
  </g>
</svg>
