<?xml version="1.0" encoding="UTF-8" standalone="no"?>
<!-- Created with Inkscape (http://www.inkscape.org/) -->

<svg
   width="360pt"
   height="640pt"
   viewBox="0 0 127 225.77778"
   version="1.1"
   id="svg5"
   inkscape:version="1.1 (c4e8f9e, 2021-05-24)"
   sodipodi:docname="5.svg"
   xmlns:inkscape="http://www.inkscape.org/namespaces/inkscape"
   xmlns:sodipodi="http://sodipodi.sourceforge.net/DTD/sodipodi-0.dtd"
   xmlns="http://www.w3.org/2000/svg"
   xmlns:svg="http://www.w3.org/2000/svg">
  <sodipodi:namedview
     id="namedview7"
     pagecolor="#ffffff"
     bordercolor="#666666"
     borderopacity="1.0"
     inkscape:pageshadow="2"
     inkscape:pageopacity="0.0"
     inkscape:pagecheckerboard="0"
     inkscape:document-units="mm"
     showgrid="false"
     units="pt"
     width="360pt"
     inkscape:zoom="0.67081229"
     inkscape:cx="122.98522"
     inkscape:cy="436.03852"
     inkscape:window-width="1440"
     inkscape:window-height="855"
     inkscape:window-x="0"
     inkscape:window-y="23"
     inkscape:window-maximized="0"
     inkscape:current-layer="g1697" />
  <defs
     id="defs2">
    <rect
       x="37.26825"
       y="372.6825"
       width="387.5898"
       height="214.66512"
       id="rect2375" />
    <style
       id="style824">.cls-1{fill:#007aff;}</style>
    <clipPath
       clipPathUnits="userSpaceOnUse"
       id="clipPath1192">
      <path
         d="M 0,0 H 606 V 160 H 0 Z"
         id="path1190" />
    </clipPath>
    <clipPath
       clipPathUnits="userSpaceOnUse"
       id="clipPath1232">
      <path
         d="M 0,0 H 606 V 160 H 0 Z"
         id="path1230" />
    </clipPath>
    <clipPath
       clipPathUnits="userSpaceOnUse"
       id="clipPath1272">
      <path
         d="M 0,0 H 606 V 160 H 0 Z"
         id="path1270" />
    </clipPath>
    <clipPath
       clipPathUnits="userSpaceOnUse"
       id="clipPath1312">
      <path
         d="M 0,0 H 606 V 160 H 0 Z"
         id="path1310" />
    </clipPath>
    <clipPath
       clipPathUnits="userSpaceOnUse"
       id="clipPath1392">
      <path
         d="M 0,0 H 606 V 159 H 0 Z"
         id="path1390" />
    </clipPath>
    <clipPath
       clipPathUnits="userSpaceOnUse"
       id="clipPath1432">
      <path
         d="M 0,0 H 607 V 160 H 0 Z"
         id="path1430" />
    </clipPath>
    <clipPath
       clipPathUnits="userSpaceOnUse"
       id="clipPath1013">
      <path
         d="M 0,0 H 3508.3333 V 2485.8191 H 0 Z"
         clip-rule="evenodd"
         id="path1011" />
    </clipPath>
    <clipPath
       clipPathUnits="userSpaceOnUse"
       id="clipPath1027">
      <path
         d="M 0,0 H 3508.3333 V 2482.8206 H 0 Z"
         clip-rule="evenodd"
         id="path1025" />
    </clipPath>
    <clipPath
       clipPathUnits="userSpaceOnUse"
       id="clipPath1045">
      <path
         d="M 0,0 H 607 V 160 H 0 Z"
         id="path1043" />
    </clipPath>
    <clipPath
       clipPathUnits="userSpaceOnUse"
       id="clipPath1085">
      <path
         d="M 0,0 H 607 V 160 H 0 Z"
         id="path1083" />
    </clipPath>
    <clipPath
       clipPathUnits="userSpaceOnUse"
       id="clipPath1125">
      <path
         d="M 0,0 H 607 V 160 H 0 Z"
         id="path1123" />
    </clipPath>
    <clipPath
       clipPathUnits="userSpaceOnUse"
       id="clipPath1165">
      <path
         d="M 0,0 H 607 V 160 H 0 Z"
         id="path1163" />
    </clipPath>
    <clipPath
       clipPathUnits="userSpaceOnUse"
       id="clipPath1245">
      <path
         d="M 0,0 H 607 V 159 H 0 Z"
         id="path1243" />
    </clipPath>
    <clipPath
       clipPathUnits="userSpaceOnUse"
       id="clipPath1285">
      <path
         d="M 0,0 H 607 V 160 H 0 Z"
         id="path1283" />
    </clipPath>
    <clipPath
       clipPathUnits="userSpaceOnUse"
       id="clipPath1529">
      <path
         d="M 0,0 H 606 V 160 H 0 Z"
         id="path1527" />
    </clipPath>
    <clipPath
       clipPathUnits="userSpaceOnUse"
       id="clipPath1569">
      <path
         d="M 0,0 H 606 V 160 H 0 Z"
         id="path1567" />
    </clipPath>
    <clipPath
       clipPathUnits="userSpaceOnUse"
       id="clipPath1609">
      <path
         d="M 0,0 H 606 V 160 H 0 Z"
         id="path1607" />
    </clipPath>
    <clipPath
       clipPathUnits="userSpaceOnUse"
       id="clipPath1649">
      <path
         d="M 0,0 H 606 V 160 H 0 Z"
         id="path1647" />
    </clipPath>
    <clipPath
       clipPathUnits="userSpaceOnUse"
       id="clipPath1733">
      <path
         d="M 0,0 H 606 V 163 H 0 Z"
         id="path1731" />
    </clipPath>
    <clipPath
       clipPathUnits="userSpaceOnUse"
       id="clipPath1777">
      <path
         d="m 2693.4705,1276.6436 h 50.3057 v 42.3936 h -50.3057 z"
         clip-rule="evenodd"
         id="path1775" />
    </clipPath>
    <clipPath
       clipPathUnits="userSpaceOnUse"
       id="clipPath1789">
      <path
         d="M 0,0 H 3508.3333 V 2482.8206 H 0 Z"
         clip-rule="evenodd"
         id="path1787" />
    </clipPath>
    <clipPath
       clipPathUnits="userSpaceOnUse"
       id="clipPath1835">
      <path
         d="M 0,0 H 606 V 159 H 0 Z"
         id="path1833" />
    </clipPath>
  </defs>
  <g
     inkscape:label="Layer 1"
     inkscape:groupmode="layer"
     id="layer1">
    <g
       id="g3956"
       transform="matrix(1.4192949,0,0,1.4192949,132.39714,-8.7166643)">
      <g
         id="g1523"
         transform="matrix(0.08466666,0,0,0.08466666,-72.752296,26.486078)">
        <g
           id="g1525" />
        <g
           id="g1539">
          <g
             clip-path="url(#clipPath1529)"
             opacity="0.2471"
             id="g1537">
            <g
               transform="matrix(2.9985754,0,0,2.9985754,-2635.5037,-362.50497)"
               id="g1535">
              <path
                 d="m 881,122 h 198 c 0.2761,0 0.5118,0.0976 0.707,0.29288 0.1952,0.19526 0.2929,0.43097 0.293,0.70712 v 49.5 c -10e-5,0.27614 -0.098,0.51183 -0.293,0.70709 -0.1952,0.19527 -0.4309,0.29289 -0.707,0.29291 H 881 c -0.27618,-2e-5 -0.51196,-0.0976 -0.70721,-0.29291 C 880.09753,173.01183 879.99994,172.77614 880,172.5 V 123 c -6e-5,-0.27615 0.0975,-0.51186 0.29279,-0.70712 C 880.48804,122.09763 880.72382,122 881,122 Z"
                 style="fill:#000000;fill-opacity:1;fill-rule:nonzero;stroke:none"
                 id="path1531" />
              <path
                 d="m 881,122 h 198 c 0.2761,0 0.5118,0.0976 0.707,0.29288 0.1952,0.19526 0.2929,0.43097 0.293,0.70712 v 49.5 c -10e-5,0.27614 -0.098,0.51183 -0.293,0.70709 -0.1952,0.19527 -0.4309,0.29289 -0.707,0.29291 H 881 c -0.27618,-2e-5 -0.51196,-0.0976 -0.70721,-0.29291 C 880.09753,173.01183 879.99994,172.77614 880,172.5 V 123 c -6e-5,-0.27615 0.0975,-0.51186 0.29279,-0.70712 C 880.48804,122.09763 880.72382,122 881,122 Z"
                 style="fill:none;stroke:#000000;stroke-width:1;stroke-linecap:butt;stroke-linejoin:miter;stroke-miterlimit:10;stroke-dasharray:none;stroke-opacity:1"
                 id="path1533" />
            </g>
          </g>
        </g>
      </g>
      <g
         id="g1541"
         transform="matrix(0.25387936,0,0,0.25387936,-296.39934,-4.9676456)">
        <path
           d="m 881,122 h 198 c 0.2761,0 0.5118,0.0976 0.707,0.29288 0.1952,0.19526 0.2929,0.43097 0.293,0.70712 v 49.5 c -10e-5,0.27614 -0.098,0.51183 -0.293,0.70709 -0.1952,0.19527 -0.4309,0.29289 -0.707,0.29291 H 881 c -0.27618,-2e-5 -0.51196,-0.0976 -0.70721,-0.29291 C 880.09753,173.01183 879.99994,172.77614 880,172.5 V 123 c -6e-5,-0.27615 0.0975,-0.51186 0.29279,-0.70712 C 880.48804,122.09763 880.72382,122 881,122 Z"
           style="fill:#ffffff;fill-opacity:1;fill-rule:nonzero;stroke:none"
           id="path1543" />
        <path
           d="m 881,122 h 198 c 0.2761,0 0.5118,0.0976 0.707,0.29288 0.1952,0.19526 0.2929,0.43097 0.293,0.70712 v 49.5 c -10e-5,0.27614 -0.098,0.51183 -0.293,0.70709 -0.1952,0.19527 -0.4309,0.29289 -0.707,0.29291 H 881 c -0.27618,-2e-5 -0.51196,-0.0976 -0.70721,-0.29291 C 880.09753,173.01183 879.99994,172.77614 880,172.5 V 123 c -6e-5,-0.27615 0.0975,-0.51186 0.29279,-0.70712 C 880.48804,122.09763 880.72382,122 881,122 Z"
           style="fill:none;stroke:#dddddd;stroke-width:1;stroke-linecap:butt;stroke-linejoin:miter;stroke-miterlimit:10;stroke-dasharray:none;stroke-opacity:1"
           id="path1545" />
        <path
           d="m 901.19,161.00999 c -0.98999,0 -1.92999,-0.53999 -2.41998,-1.55999 L 893,149.05 c -0.52002,-0.91 -0.44,-1.97 0,-2.72 l 5.82001,-10.41 c 0.48999,-0.94 1.38,-1.43 2.27002,-1.43 h 11.69 c 0.86999,0 1.72998,0.43999 2.23999,1.33001 l 5.79999,10.39 c 0.70001,1.09999 0.46002,2.26999 0.06,2.91999 l -5.76,10.34 c -0.39002,0.83 -1.26001,1.53999 -2.38001,1.53999 h -11.54999 z"
           style="fill:#5184f3;fill-opacity:1;fill-rule:nonzero;stroke:none"
           id="path1547" />
        <path
           d="m 911.88,161.00999 -9.79998,-10.11 1.55999,-2.39 -1.55999,-1.39999 9.76001,-2.5 7.33996,7.56999 L 915.12,159.47 c -0.39002,0.83 -1.26001,1.53999 -2.38001,1.53999 z"
           style="fill:#000000;fill-opacity:0.0706;fill-rule:nonzero;stroke:none"
           id="path1549" />
        <path
           d="m 910.19,146.35001 c 0.27002,0 0.45001,-0.23002 0.45001,-0.5 0,-0.40001 -0.23004,-0.53 -0.44,-0.53 -0.35998,0 -0.54004,0.22999 -0.54004,0.5 0,0.30999 0.23004,0.53 0.53003,0.53 z M 902.26001,147.2 c -0.12,0 -0.28003,-0.12999 -0.28003,-0.27001 V 144.84 c 0,-0.23999 0.15002,-0.32 0.41003,-0.32 H 911.56 c 0.22003,0 0.36999,0.05 0.36999,0.37 v 1.92 c 0,0.21 -0.11999,0.39 -0.36999,0.39 z m 7.90997,2.99 c 0.27002,0 0.5,-0.27 0.5,-0.53 0,-0.3 -0.17999,-0.51001 -0.5,-0.51001 -0.29998,0 -0.51001,0.17002 -0.51001,0.52001 0,0.24 0.21003,0.52 0.51001,0.52 z m -7.80999,0.8 c -0.23999,0 -0.38001,-0.13 -0.38001,-0.32 v -2.03 c 0,-0.2 0.12,-0.33 0.37,-0.33 h 9.13 c 0.32001,0 0.45001,0.09 0.45001,0.41 v 1.77 c 0,0.32 -0.13,0.5 -0.41998,0.5 z"
           style="fill:#ffffff;fill-opacity:1;fill-rule:nonzero;stroke:none"
           id="path1551" />
      </g>
      <g
         id="g1553"
         transform="matrix(0.25387936,0,0,0.25387936,-296.52628,-5.0945853)">
        <text
           transform="translate(936,146)"
           style="font-variant:normal;font-weight:normal;font-size:12px;font-family:Helvetica;-inkscape-font-specification:Helvetica;writing-mode:lr-tb;fill:#000000;fill-opacity:1;fill-rule:nonzero;stroke:none"
           id="text1557"><tspan
             x="0 6 12.673828 18.673828 24.673828 31.347656 39.351562 47.355469"
             y="0"
             sodipodi:role="line"
             id="tspan1555">TokyoSBP</tspan></text>
        <text
           transform="translate(936,160)"
           style="font-variant:normal;font-weight:normal;font-size:12px;font-family:Helvetica;-inkscape-font-specification:Helvetica;writing-mode:lr-tb;fill:#999999;fill-opacity:1;fill-rule:nonzero;stroke:none"
           id="text1561"><tspan
             x="0 8.0039062 14.677734 21.351562 28.025391 34.025391 40.699219 47.373047 50.707031 54.041016 62.044922 64.710938 71.384766 77.384766 83.384766 86.71875 94.722656 98.71875 105.39258 112.06641 118.74023 124.74023 131.41406"
             y="0"
             sodipodi:role="line"
             id="tspan1559">Snapshot Block Producer</tspan></text>
      </g>
      <g
         id="g1563"
         transform="matrix(0.08466666,0,0,0.08466666,-72.752296,11.24608)">
        <g
           id="g1565" />
        <g
           id="g1579">
          <g
             clip-path="url(#clipPath1569)"
             opacity="0.2471"
             id="g1577">
            <g
               transform="matrix(2.9985754,0,0,2.9985754,-2635.5037,-182.50499)"
               id="g1575">
              <path
                 d="m 881,62 h 198 c 0.2761,0 0.5118,0.09763 0.707,0.292889 0.1952,0.195263 0.2929,0.430969 0.293,0.707111 v 49.5 c -10e-5,0.27614 -0.098,0.51184 -0.293,0.7071 -0.1952,0.19526 -0.4309,0.29289 -0.707,0.2929 H 881 c -0.27618,-1e-5 -0.51196,-0.0976 -0.70721,-0.2929 C 880.09753,113.01184 879.99994,112.77614 880,112.5 V 63 c -6e-5,-0.276142 0.0975,-0.511848 0.29279,-0.707111 C 880.48804,62.09763 880.72382,62 881,62 Z"
                 style="fill:#000000;fill-opacity:1;fill-rule:nonzero;stroke:none"
                 id="path1571" />
              <path
                 d="m 881,62 h 198 c 0.2761,0 0.5118,0.09763 0.707,0.292889 0.1952,0.195263 0.2929,0.430969 0.293,0.707111 v 49.5 c -10e-5,0.27614 -0.098,0.51184 -0.293,0.7071 -0.1952,0.19526 -0.4309,0.29289 -0.707,0.2929 H 881 c -0.27618,-1e-5 -0.51196,-0.0976 -0.70721,-0.2929 C 880.09753,113.01184 879.99994,112.77614 880,112.5 V 63 c -6e-5,-0.276142 0.0975,-0.511848 0.29279,-0.707111 C 880.48804,62.09763 880.72382,62 881,62 Z"
                 style="fill:none;stroke:#000000;stroke-width:1;stroke-linecap:butt;stroke-linejoin:miter;stroke-miterlimit:10;stroke-dasharray:none;stroke-opacity:1"
                 id="path1573" />
            </g>
          </g>
        </g>
      </g>
      <g
         id="g1581"
         transform="matrix(0.25387936,0,0,0.25387936,-296.39934,-4.9676456)">
        <path
           d="m 881,62 h 198 c 0.2761,0 0.5118,0.09763 0.707,0.292889 0.1952,0.195263 0.2929,0.430969 0.293,0.707111 v 49.5 c -10e-5,0.27614 -0.098,0.51184 -0.293,0.7071 -0.1952,0.19526 -0.4309,0.29289 -0.707,0.2929 H 881 c -0.27618,-1e-5 -0.51196,-0.0976 -0.70721,-0.2929 C 880.09753,113.01184 879.99994,112.77614 880,112.5 V 63 c -6e-5,-0.276142 0.0975,-0.511848 0.29279,-0.707111 C 880.48804,62.09763 880.72382,62 881,62 Z"
           style="fill:#ffffff;fill-opacity:1;fill-rule:nonzero;stroke:none"
           id="path1583" />
        <path
           d="m 881,62 h 198 c 0.2761,0 0.5118,0.09763 0.707,0.292889 0.1952,0.195263 0.2929,0.430969 0.293,0.707111 v 49.5 c -10e-5,0.27614 -0.098,0.51184 -0.293,0.7071 -0.1952,0.19526 -0.4309,0.29289 -0.707,0.2929 H 881 c -0.27618,-1e-5 -0.51196,-0.0976 -0.70721,-0.2929 C 880.09753,113.01184 879.99994,112.77614 880,112.5 V 63 c -6e-5,-0.276142 0.0975,-0.511848 0.29279,-0.707111 C 880.48804,62.09763 880.72382,62 881,62 Z"
           style="fill:none;stroke:#dddddd;stroke-width:1;stroke-linecap:butt;stroke-linejoin:miter;stroke-miterlimit:10;stroke-dasharray:none;stroke-opacity:1"
           id="path1585" />
        <path
           d="m 901.19,101.01 c -0.98999,0 -1.92999,-0.54 -2.41998,-1.560003 L 893,89.050003 c -0.52002,-0.910004 -0.44,-1.970001 0,-2.720001 l 5.82001,-10.410004 c 0.48999,-0.939995 1.38,-1.43 2.27002,-1.43 h 11.69 c 0.86999,0 1.72998,0.440002 2.23999,1.330002 l 5.79999,10.389999 c 0.70001,1.099999 0.46002,2.270004 0.06,2.919998 l -5.76,10.340004 C 914.72998,100.3 913.85999,101.01 912.73999,101.01 Z"
           style="fill:#5184f3;fill-opacity:1;fill-rule:nonzero;stroke:none"
           id="path1587" />
        <path
           d="m 911.88,101.01 -9.79998,-10.109998 1.55999,-2.39 -1.55999,-1.400001 9.76001,-2.5 L 919.17999,92.18 915.12,99.470001 C 914.72998,100.3 913.85999,101.01 912.73999,101.01 Z"
           style="fill:#000000;fill-opacity:0.0706;fill-rule:nonzero;stroke:none"
           id="path1589" />
        <path
           d="m 910.19,86.349998 c 0.27002,0 0.45001,-0.229995 0.45001,-0.5 0,-0.400001 -0.23004,-0.529998 -0.44,-0.529998 -0.35998,0 -0.54004,0.230003 -0.54004,0.5 0,0.309997 0.23004,0.529998 0.53003,0.529998 z m -7.92999,0.849999 c -0.12,0 -0.28003,-0.129997 -0.28003,-0.269997 v -2.090004 c 0,-0.239998 0.15002,-0.319999 0.41003,-0.319999 H 911.56 c 0.22003,0 0.36999,0.05 0.36999,0.370002 v 1.919999 c 0,0.209999 -0.11999,0.389999 -0.36999,0.389999 z m 7.90997,2.990005 c 0.27002,0 0.5,-0.270004 0.5,-0.529998 0,-0.300003 -0.17999,-0.510002 -0.5,-0.510002 -0.29998,0 -0.51001,0.169998 -0.51001,0.519996 0,0.240006 0.21003,0.520004 0.51001,0.520004 z m -7.80999,0.799996 c -0.23999,0 -0.38001,-0.129997 -0.38001,-0.32 v -2.029999 c 0,-0.199997 0.12,-0.330001 0.37,-0.330001 h 9.13 c 0.32001,0 0.45001,0.09 0.45001,0.410003 v 1.769997 c 0,0.32 -0.13,0.5 -0.41998,0.5 z"
           style="fill:#ffffff;fill-opacity:1;fill-rule:nonzero;stroke:none"
           id="path1591" />
      </g>
      <g
         id="g1593"
         transform="matrix(0.25387936,0,0,0.25387936,-296.52628,-5.0945853)">
        <text
           transform="translate(936,86)"
           style="font-variant:normal;font-weight:normal;font-size:12px;font-family:Helvetica;-inkscape-font-specification:Helvetica;writing-mode:lr-tb;fill:#000000;fill-opacity:1;fill-rule:nonzero;stroke:none"
           id="text1597"><tspan
             x="0 8.0039062 16.669922 19.335938 25.335938 31.335938 39.128906 41.794922 45.128906 51.802734 55.136719 61.810547 65.806641"
             y="0"
             sodipodi:role="line"
             id="tspan1595">SwissVite.org</tspan></text>
        <text
           transform="translate(936,100)"
           style="font-variant:normal;font-weight:normal;font-size:12px;font-family:Helvetica;-inkscape-font-specification:Helvetica;writing-mode:lr-tb;fill:#999999;fill-opacity:1;fill-rule:nonzero;stroke:none"
           id="text1601"><tspan
             x="0 8.0039062 14.677734 21.351562 28.025391 34.025391 40.699219 47.373047 50.707031 54.041016 62.044922 64.710938 71.384766 77.384766 83.384766 86.71875 94.722656 98.71875 105.39258 112.06641 118.74023 124.74023 131.41406"
             y="0"
             sodipodi:role="line"
             id="tspan1599">Snapshot Block Producer</tspan></text>
      </g>
      <g
         id="g1603"
         transform="matrix(0.08466666,0,0,0.08466666,-72.752296,57.474076)">
        <g
           id="g1605" />
        <g
           id="g1619">
          <g
             clip-path="url(#clipPath1609)"
             opacity="0.2471"
             id="g1617">
            <g
               transform="matrix(2.9985754,0,0,2.9985754,-2635.5037,-728.505)"
               id="g1615">
              <path
                 d="m 881,244 h 198 c 0.2761,0 0.5118,0.0976 0.707,0.29288 0.1952,0.19526 0.2929,0.43097 0.293,0.70712 v 49.5 c -10e-5,0.27612 -0.098,0.51181 -0.293,0.70709 -0.1952,0.19525 -0.4309,0.29288 -0.707,0.29291 H 881 c -0.27618,-3e-5 -0.51196,-0.0977 -0.70721,-0.29291 C 880.09753,295.01181 879.99994,294.77612 880,294.5 V 245 c -6e-5,-0.27615 0.0975,-0.51186 0.29279,-0.70712 C 880.48804,244.09763 880.72382,244 881,244 Z"
                 style="fill:#000000;fill-opacity:1;fill-rule:nonzero;stroke:none"
                 id="path1611" />
              <path
                 d="m 881,244 h 198 c 0.2761,0 0.5118,0.0976 0.707,0.29288 0.1952,0.19526 0.2929,0.43097 0.293,0.70712 v 49.5 c -10e-5,0.27612 -0.098,0.51181 -0.293,0.70709 -0.1952,0.19525 -0.4309,0.29288 -0.707,0.29291 H 881 c -0.27618,-3e-5 -0.51196,-0.0977 -0.70721,-0.29291 C 880.09753,295.01181 879.99994,294.77612 880,294.5 V 245 c -6e-5,-0.27615 0.0975,-0.51186 0.29279,-0.70712 C 880.48804,244.09763 880.72382,244 881,244 Z"
                 style="fill:none;stroke:#000000;stroke-width:1;stroke-linecap:butt;stroke-linejoin:miter;stroke-miterlimit:10;stroke-dasharray:none;stroke-opacity:1"
                 id="path1613" />
            </g>
          </g>
        </g>
      </g>
      <g
         id="g1621"
         transform="matrix(0.25387936,0,0,0.25387936,-296.39934,-4.9676456)">
        <path
           d="m 881,244 h 198 c 0.2761,0 0.5118,0.0976 0.707,0.29288 0.1952,0.19526 0.2929,0.43097 0.293,0.70712 v 49.5 c -10e-5,0.27612 -0.098,0.51181 -0.293,0.70709 -0.1952,0.19525 -0.4309,0.29288 -0.707,0.29291 H 881 c -0.27618,-3e-5 -0.51196,-0.0977 -0.70721,-0.29291 C 880.09753,295.01181 879.99994,294.77612 880,294.5 V 245 c -6e-5,-0.27615 0.0975,-0.51186 0.29279,-0.70712 C 880.48804,244.09763 880.72382,244 881,244 Z"
           style="fill:#ffffff;fill-opacity:1;fill-rule:nonzero;stroke:none"
           id="path1623" />
        <path
           d="m 881,244 h 198 c 0.2761,0 0.5118,0.0976 0.707,0.29288 0.1952,0.19526 0.2929,0.43097 0.293,0.70712 v 49.5 c -10e-5,0.27612 -0.098,0.51181 -0.293,0.70709 -0.1952,0.19525 -0.4309,0.29288 -0.707,0.29291 H 881 c -0.27618,-3e-5 -0.51196,-0.0977 -0.70721,-0.29291 C 880.09753,295.01181 879.99994,294.77612 880,294.5 V 245 c -6e-5,-0.27615 0.0975,-0.51186 0.29279,-0.70712 C 880.48804,244.09763 880.72382,244 881,244 Z"
           style="fill:none;stroke:#dddddd;stroke-width:1;stroke-linecap:butt;stroke-linejoin:miter;stroke-miterlimit:10;stroke-dasharray:none;stroke-opacity:1"
           id="path1625" />
        <path
           d="m 901.19,283.01001 c -0.98999,0 -1.92999,-0.54001 -2.41998,-1.56 L 893,271.04999 c -0.52002,-0.90998 -0.44,-1.97 0,-2.72 l 5.82001,-10.40998 c 0.48999,-0.94 1.38,-1.43002 2.27002,-1.43002 h 11.69 c 0.86999,0 1.72998,0.44 2.23999,1.33002 l 5.79999,10.38998 c 0.70001,1.10001 0.46002,2.27002 0.06,2.92001 l -5.76,10.34 c -0.39002,0.82999 -1.26001,1.54001 -2.38001,1.54001 h -11.54999 z"
           style="fill:#5184f3;fill-opacity:1;fill-rule:nonzero;stroke:none"
           id="path1627" />
        <path
           d="m 911.88,283.01001 -9.79998,-10.11002 1.55999,-2.38998 -1.55999,-1.40002 9.76001,-2.5 7.33996,7.57 L 915.12,281.47 c -0.39002,0.82999 -1.26001,1.54001 -2.38001,1.54001 z"
           style="fill:#000000;fill-opacity:0.0706;fill-rule:nonzero;stroke:none"
           id="path1629" />
        <path
           d="m 910.19,268.35001 c 0.27002,0 0.45001,-0.23001 0.45001,-0.5 0,-0.4 -0.23004,-0.53 -0.44,-0.53 -0.35998,0 -0.54004,0.22998 -0.54004,0.5 0,0.30999 0.23004,0.53 0.53003,0.53 z m -7.92999,0.85 c -0.12,0 -0.28003,-0.13 -0.28003,-0.27002 V 266.84 c 0,-0.23999 0.15002,-0.32001 0.41003,-0.32001 H 911.56 c 0.22003,0 0.36999,0.05 0.36999,0.37002 V 268.81 c 0,0.20999 -0.11999,0.39001 -0.36999,0.39001 z m 7.90997,2.98999 c 0.27002,0 0.5,-0.26999 0.5,-0.53 0,-0.30001 -0.17999,-0.51001 -0.5,-0.51001 -0.29998,0 -0.51001,0.17002 -0.51001,0.52002 0,0.23999 0.21003,0.51999 0.51001,0.51999 z m -7.80999,0.79999 c -0.23999,0 -0.38001,-0.13 -0.38001,-0.31998 v -2.03 c 0,-0.20001 0.12,-0.33001 0.37,-0.33001 h 9.13 c 0.32001,0 0.45001,0.09 0.45001,0.41 v 1.76999 c 0,0.32001 -0.13,0.5 -0.41998,0.5 z"
           style="fill:#ffffff;fill-opacity:1;fill-rule:nonzero;stroke:none"
           id="path1631" />
      </g>
      <g
         id="g1633"
         transform="matrix(0.25387936,0,0,0.25387936,-296.52628,-5.0945853)">
        <text
           transform="translate(936,268)"
           style="font-variant:normal;font-weight:normal;font-size:12px;font-family:Helvetica;-inkscape-font-specification:Helvetica;writing-mode:lr-tb;fill:#000000;fill-opacity:1;fill-rule:nonzero;stroke:none"
           id="text1637"><tspan
             x="0 7.7929688 10.458984 13.792969 20.466797 30.462891 33.128906 39.802734 48.46875 55.142578 57.808594 64.482422 72.486328 80.490234"
             y="0"
             sodipodi:role="line"
             id="tspan1635">VitaminCoinSBP</tspan></text>
        <text
           transform="translate(936,282)"
           style="font-variant:normal;font-weight:normal;font-size:12px;font-family:Helvetica;-inkscape-font-specification:Helvetica;writing-mode:lr-tb;fill:#999999;fill-opacity:1;fill-rule:nonzero;stroke:none"
           id="text1641"><tspan
             x="0 8.0039062 14.677734 21.351562 28.025391 34.025391 40.699219 47.373047 50.707031 54.041016 62.044922 64.710938 71.384766 77.384766 83.384766 86.71875 94.722656 98.71875 105.39258 112.06641 118.74023 124.74023 131.41406"
             y="0"
             sodipodi:role="line"
             id="tspan1639">Snapshot Block Producer</tspan></text>
      </g>
      <g
         id="g1643"
         transform="matrix(0.08466666,0,0,0.08466666,-72.752296,42.234077)">
        <g
           id="g1645" />
        <g
           id="g1659">
          <g
             clip-path="url(#clipPath1649)"
             opacity="0.2471"
             id="g1657">
            <g
               transform="matrix(2.9985754,0,0,2.9985754,-2635.5037,-548.505)"
               id="g1655">
              <path
                 d="m 881,184 h 198 c 0.2761,0 0.5118,0.0976 0.707,0.29289 0.1952,0.19527 0.2929,0.43097 0.293,0.70711 v 49.5 c -10e-5,0.27614 -0.098,0.51183 -0.293,0.70709 -0.1952,0.19527 -0.4309,0.29289 -0.707,0.29291 H 881 c -0.27618,-2e-5 -0.51196,-0.0976 -0.70721,-0.29291 C 880.09753,235.01183 879.99994,234.77614 880,234.5 V 185 c -6e-5,-0.27614 0.0975,-0.51184 0.29279,-0.70711 C 880.48804,184.09763 880.72382,184 881,184 Z"
                 style="fill:#000000;fill-opacity:1;fill-rule:nonzero;stroke:none"
                 id="path1651" />
              <path
                 d="m 881,184 h 198 c 0.2761,0 0.5118,0.0976 0.707,0.29289 0.1952,0.19527 0.2929,0.43097 0.293,0.70711 v 49.5 c -10e-5,0.27614 -0.098,0.51183 -0.293,0.70709 -0.1952,0.19527 -0.4309,0.29289 -0.707,0.29291 H 881 c -0.27618,-2e-5 -0.51196,-0.0976 -0.70721,-0.29291 C 880.09753,235.01183 879.99994,234.77614 880,234.5 V 185 c -6e-5,-0.27614 0.0975,-0.51184 0.29279,-0.70711 C 880.48804,184.09763 880.72382,184 881,184 Z"
                 style="fill:none;stroke:#000000;stroke-width:1;stroke-linecap:butt;stroke-linejoin:miter;stroke-miterlimit:10;stroke-dasharray:none;stroke-opacity:1"
                 id="path1653" />
            </g>
          </g>
        </g>
      </g>
      <g
         id="g1661"
         transform="matrix(0.25387936,0,0,0.25387936,-296.39934,-4.9676456)">
        <path
           d="m 881,184 h 198 c 0.2761,0 0.5118,0.0976 0.707,0.29289 0.1952,0.19527 0.2929,0.43097 0.293,0.70711 v 49.5 c -10e-5,0.27614 -0.098,0.51183 -0.293,0.70709 -0.1952,0.19527 -0.4309,0.29289 -0.707,0.29291 H 881 c -0.27618,-2e-5 -0.51196,-0.0976 -0.70721,-0.29291 C 880.09753,235.01183 879.99994,234.77614 880,234.5 V 185 c -6e-5,-0.27614 0.0975,-0.51184 0.29279,-0.70711 C 880.48804,184.09763 880.72382,184 881,184 Z"
           style="fill:#ffffff;fill-opacity:1;fill-rule:nonzero;stroke:none"
           id="path1663" />
        <path
           d="m 881,184 h 198 c 0.2761,0 0.5118,0.0976 0.707,0.29289 0.1952,0.19527 0.2929,0.43097 0.293,0.70711 v 49.5 c -10e-5,0.27614 -0.098,0.51183 -0.293,0.70709 -0.1952,0.19527 -0.4309,0.29289 -0.707,0.29291 H 881 c -0.27618,-2e-5 -0.51196,-0.0976 -0.70721,-0.29291 C 880.09753,235.01183 879.99994,234.77614 880,234.5 V 185 c -6e-5,-0.27614 0.0975,-0.51184 0.29279,-0.70711 C 880.48804,184.09763 880.72382,184 881,184 Z"
           style="fill:none;stroke:#dddddd;stroke-width:1;stroke-linecap:butt;stroke-linejoin:miter;stroke-miterlimit:10;stroke-dasharray:none;stroke-opacity:1"
           id="path1665" />
        <path
           d="m 901.19,223.00999 c -0.98999,0 -1.92999,-0.53999 -2.41998,-1.55999 L 893,211.05 c -0.52002,-0.91 -0.44,-1.97 0,-2.72 l 5.82001,-10.41 c 0.48999,-0.94 1.38,-1.42999 2.27002,-1.42999 h 11.69 c 0.86999,0 1.72998,0.43998 2.23999,1.33 l 5.79999,10.39 c 0.70001,1.09999 0.46002,2.26999 0.06,2.91999 l -5.76,10.34 c -0.39002,0.83 -1.26001,1.53999 -2.38001,1.53999 h -11.54999 z"
           style="fill:#5184f3;fill-opacity:1;fill-rule:nonzero;stroke:none"
           id="path1667" />
        <path
           d="m 911.88,223.00999 -9.79998,-10.11 1.55999,-2.39 -1.55999,-1.39999 9.76001,-2.5 7.33996,7.56999 L 915.12,221.47 c -0.39002,0.83 -1.26001,1.53999 -2.38001,1.53999 z"
           style="fill:#000000;fill-opacity:0.0706;fill-rule:nonzero;stroke:none"
           id="path1669" />
        <path
           d="m 910.19,208.35001 c 0.27002,0 0.45001,-0.23001 0.45001,-0.5 0,-0.40001 -0.23004,-0.53 -0.44,-0.53 -0.35998,0 -0.54004,0.22999 -0.54004,0.5 0,0.30999 0.23004,0.53 0.53003,0.53 z M 902.26001,209.2 c -0.12,0 -0.28003,-0.12999 -0.28003,-0.27001 V 206.84 c 0,-0.23999 0.15002,-0.32 0.41003,-0.32 H 911.56 c 0.22003,0 0.36999,0.05 0.36999,0.37 v 1.92 c 0,0.21 -0.11999,0.39 -0.36999,0.39 z m 7.90997,2.99 c 0.27002,0 0.5,-0.27 0.5,-0.53 0,-0.3 -0.17999,-0.51001 -0.5,-0.51001 -0.29998,0 -0.51001,0.17002 -0.51001,0.52001 0,0.24 0.21003,0.52 0.51001,0.52 z m -7.80999,0.80001 c -0.23999,0 -0.38001,-0.13001 -0.38001,-0.32001 v -2.03 c 0,-0.2 0.12,-0.33 0.37,-0.33 h 9.13 c 0.32001,0 0.45001,0.09 0.45001,0.41 v 1.77001 c 0,0.31999 -0.13,0.5 -0.41998,0.5 z"
           style="fill:#ffffff;fill-opacity:1;fill-rule:nonzero;stroke:none"
           id="path1671" />
      </g>
      <g
         id="g1673"
         transform="matrix(0.25387936,0,0,0.25387936,-296.52628,-5.0945853)">
        <text
           transform="translate(936,208)"
           style="font-variant:normal;font-weight:normal;font-size:12px;font-family:Helvetica;-inkscape-font-specification:Helvetica;writing-mode:lr-tb;fill:#000000;fill-opacity:1;fill-rule:nonzero;stroke:none"
           id="text1677"><tspan
             x="0 7.7929688 10.458984 19.125 25.798828 32.472656 41.138672 47.8125 57.808594 67.804688 74.478516 81.152344 83.818359 87.152344 93.152344 99.826172 108.49219 115.16602 121.83984"
             y="0"
             sodipodi:role="line"
             id="tspan1675">ViNo_Community_Node</tspan></text>
        <text
           transform="translate(936,222)"
           style="font-variant:normal;font-weight:normal;font-size:12px;font-family:Helvetica;-inkscape-font-specification:Helvetica;writing-mode:lr-tb;fill:#999999;fill-opacity:1;fill-rule:nonzero;stroke:none"
           id="text1681"><tspan
             x="0 8.0039062 14.677734 21.351562 28.025391 34.025391 40.699219 47.373047 50.707031 54.041016 62.044922 64.710938 71.384766 77.384766 83.384766 86.71875 94.722656 98.71875 105.39258 112.06641 118.74023 124.74023 131.41406"
             y="0"
             sodipodi:role="line"
             id="tspan1679">Snapshot Block Producer</tspan></text>
      </g>
      <g
         id="g1683"
         transform="matrix(0.25387936,0,0,0.25387936,-296.39934,-4.9676456)">
        <path
           d="m 870,50 h 220 V 310 H 870 Z"
           style="fill:#ffffff;fill-opacity:0.702;fill-rule:nonzero;stroke:none"
           id="path1685" />
        <path
           d="m 960,542.5 c 0,-24 0,-36 20,-36 -13.33002,0 -13.33002,-24 0,-24 13.33002,0 13.33002,24 0,24 20,0 20,12 20,36 z"
           style="fill:#dae8fc;fill-opacity:1;fill-rule:nonzero;stroke:none"
           id="path1687" />
        <path
           d="m 960,542.5 c 0,-24 0,-36 20,-36 -13.33002,0 -13.33002,-24 0,-24 13.33002,0 13.33002,24 0,24 20,0 20,12 20,36 z"
           style="fill:none;stroke:#6c8ebf;stroke-width:1;stroke-linecap:butt;stroke-linejoin:miter;stroke-miterlimit:10;stroke-dasharray:none;stroke-opacity:1"
           id="path1689" />
        <path
           d="m 960,527.5 c -80,0 -120,-15.91666 -120,-47.75 0,-31.83334 7.87665,-47.75 23.63,-47.75"
           style="fill:none;stroke:#000000;stroke-width:1;stroke-linecap:butt;stroke-linejoin:miter;stroke-miterlimit:10;stroke-dasharray:none;stroke-opacity:1"
           id="path1691" />
        <path
           d="m 868.88,432 -7,3.5 1.75,-3.5 -1.75,-3.5 z"
           style="fill:#000000;fill-opacity:1;fill-rule:nonzero;stroke:none"
           id="path1693" />
        <path
           d="m 868.88,432 -7,3.5 1.75,-3.5 -1.75,-3.5 z"
           style="fill:none;stroke:#000000;stroke-width:1;stroke-linecap:butt;stroke-linejoin:miter;stroke-miterlimit:10;stroke-dasharray:none;stroke-opacity:1"
           id="path1695" />
      </g>
      <g
         id="g1697"
         transform="matrix(0.25387936,0,0,0.25387936,-296.52628,-5.0945853)">
        <text
           transform="translate(833.79688,543)"
           style="font-variant:normal;font-weight:normal;font-size:15px;font-family:Helvetica;-inkscape-font-specification:Helvetica;writing-mode:lr-tb;fill:#000000;fill-opacity:1;fill-rule:nonzero;stroke:none"
           id="text1703"><tspan
             x="0 8.3422852 12.509766 16.677246 27.509766 35.852051 44.194336 52.536621 60.036621 63.369141 67.536621 71.704102 80.866699 89.208984 97.55127 105.89355"
             y="0"
             sodipodi:role="line"
             id="tspan1701">1. Deposit Funds</tspan></text>
        <text
           style="font-variant:normal;font-weight:normal;font-size:15px;font-family:Helvetica;-inkscape-font-specification:Helvetica;writing-mode:lr-tb;fill:#000000;fill-opacity:1;fill-rule:nonzero;stroke:none"
           id="text1703-2"
           x="1020.3417"
           y="541.76343"><tspan
             sodipodi:role="line"
             id="tspan1701-6"
             x="1020.3417"
             y="541.76343">4.Withdraw</tspan></text>
      </g>
      <g
         id="g1705"
         transform="matrix(0.25387936,0,0,0.25387936,-296.39934,-4.9676456)">
        <path
           d="m 1090,432 c 20,0 30,15.91666 30,47.75 0,31.83334 -37.8767,47.75 -113.63,47.75"
           style="fill:none;stroke:#000000;stroke-width:1;stroke-linecap:butt;stroke-linejoin:miter;stroke-miterlimit:10;stroke-dasharray:none;stroke-opacity:1"
           id="path1707" />
        <path
           d="m 1001.12,527.5 7,-3.5 -1.75,3.5 1.75,3.5 z"
           style="fill:#000000;fill-opacity:1;fill-rule:nonzero;stroke:none"
           id="path1709" />
        <path
           d="m 1001.12,527.5 7,-3.5 -1.75,3.5 1.75,3.5 z"
           style="fill:none;stroke:#000000;stroke-width:1;stroke-linecap:butt;stroke-linejoin:miter;stroke-miterlimit:10;stroke-dasharray:none;stroke-opacity:1"
           id="path1711" />
      </g>
      <g
         id="g1721"
         transform="matrix(0.25387936,0,0,0.25387936,-296.39934,-4.9676456)">
        <path
           d="m 870,396.5 h 220 v 71 H 870 Z"
           style="fill:#dae8fc;fill-opacity:1;fill-rule:nonzero;stroke:none"
           id="path1723" />
        <path
           d="m 870,396.5 h 220 v 71 H 870 Z"
           style="fill:none;stroke:#6c8ebf;stroke-width:1;stroke-linecap:butt;stroke-linejoin:miter;stroke-miterlimit:10;stroke-dasharray:none;stroke-opacity:1"
           id="path1725" />
      </g>
      <g
         id="g1727"
         transform="matrix(0.08466666,0,0,0.08466666,-72.752296,98.537406)">
        <g
           id="g1729" />
        <g
           id="g1743">
          <g
             clip-path="url(#clipPath1733)"
             opacity="0.2471"
             id="g1741">
            <g
               transform="matrix(2.9985754,0,0,2.9985754,-2635.5037,-1213.505)"
               id="g1739">
              <path
                 d="m 881,406.25 h 198 c 0.2761,0 0.5118,0.0976 0.707,0.29285 0.1952,0.19525 0.2929,0.43097 0.293,0.70715 v 49.5 c -10e-5,0.27609 -0.098,0.51178 -0.293,0.70706 -0.1952,0.19528 -0.4309,0.29291 -0.707,0.29294 H 881 c -0.27618,-3e-5 -0.51196,-0.0977 -0.70721,-0.29294 C 880.09753,457.26178 879.99994,457.02609 880,456.75 v -49.5 c -6e-5,-0.27618 0.0975,-0.5119 0.29279,-0.70715 C 880.48804,406.34763 880.72382,406.25 881,406.25 Z"
                 style="fill:#000000;fill-opacity:1;fill-rule:nonzero;stroke:none"
                 id="path1735" />
              <path
                 d="m 881,406.25 h 198 c 0.2761,0 0.5118,0.0976 0.707,0.29285 0.1952,0.19525 0.2929,0.43097 0.293,0.70715 v 49.5 c -10e-5,0.27609 -0.098,0.51178 -0.293,0.70706 -0.1952,0.19528 -0.4309,0.29291 -0.707,0.29294 H 881 c -0.27618,-3e-5 -0.51196,-0.0977 -0.70721,-0.29294 C 880.09753,457.26178 879.99994,457.02609 880,456.75 v -49.5 c -6e-5,-0.27618 0.0975,-0.5119 0.29279,-0.70715 C 880.48804,406.34763 880.72382,406.25 881,406.25 Z"
                 style="fill:none;stroke:#000000;stroke-width:1;stroke-linecap:butt;stroke-linejoin:miter;stroke-miterlimit:10;stroke-dasharray:none;stroke-opacity:1"
                 id="path1737" />
            </g>
          </g>
        </g>
      </g>
      <g
         id="g1745"
         transform="matrix(0.25387936,0,0,0.25387936,-296.39934,-4.9676456)">
        <path
           d="m 881,406.25 h 198 c 0.2761,0 0.5118,0.0976 0.707,0.29285 0.1952,0.19525 0.2929,0.43097 0.293,0.70715 v 49.5 c -10e-5,0.27609 -0.098,0.51178 -0.293,0.70706 -0.1952,0.19528 -0.4309,0.29291 -0.707,0.29294 H 881 c -0.27618,-3e-5 -0.51196,-0.0977 -0.70721,-0.29294 C 880.09753,457.26178 879.99994,457.02609 880,456.75 v -49.5 c -6e-5,-0.27618 0.0975,-0.5119 0.29279,-0.70715 C 880.48804,406.34763 880.72382,406.25 881,406.25 Z"
           style="fill:#ffffff;fill-opacity:1;fill-rule:nonzero;stroke:none"
           id="path1747" />
        <path
           d="m 881,406.25 h 198 c 0.2761,0 0.5118,0.0976 0.707,0.29285 0.1952,0.19525 0.2929,0.43097 0.293,0.70715 v 49.5 c -10e-5,0.27609 -0.098,0.51178 -0.293,0.70706 -0.1952,0.19528 -0.4309,0.29291 -0.707,0.29294 H 881 c -0.27618,-3e-5 -0.51196,-0.0977 -0.70721,-0.29294 C 880.09753,457.26178 879.99994,457.02609 880,456.75 v -49.5 c -6e-5,-0.27618 0.0975,-0.5119 0.29279,-0.70715 C 880.48804,406.34763 880.72382,406.25 881,406.25 Z"
           style="fill:none;stroke:#dddddd;stroke-width:1;stroke-linecap:butt;stroke-linejoin:miter;stroke-miterlimit:10;stroke-dasharray:none;stroke-opacity:1"
           id="path1749" />
        <path
           d="m 901.19,445.26001 c -0.98999,0 -1.92999,-0.54001 -2.41998,-1.56 L 893,433.29999 c -0.52002,-0.90998 -0.44,-1.97 0,-2.72 l 5.82001,-10.40998 c 0.48999,-0.94 1.38,-1.43002 2.27002,-1.43002 h 11.69 c 0.86999,0 1.72998,0.44 2.23999,1.33002 l 5.79999,10.38998 c 0.70001,1.10001 0.46002,2.27002 0.06,2.92001 l -5.76,10.34 c -0.39002,0.82999 -1.26001,1.54001 -2.38001,1.54001 h -11.54999 z"
           style="fill:#5184f3;fill-opacity:1;fill-rule:nonzero;stroke:none"
           id="path1751" />
        <path
           d="m 911.88,445.26001 -9.79998,-10.11002 1.55999,-2.38998 -1.55999,-1.40002 9.76001,-2.5 7.33996,7.57 L 915.12,443.72 c -0.39002,0.82999 -1.26001,1.54001 -2.38001,1.54001 z"
           style="fill:#000000;fill-opacity:0.0706;fill-rule:nonzero;stroke:none"
           id="path1753" />
        <path
           d="m 910.19,430.60001 c 0.27002,0 0.45001,-0.23001 0.45001,-0.5 0,-0.4 -0.23004,-0.53 -0.44,-0.53 -0.35998,0 -0.54004,0.22998 -0.54004,0.5 0,0.30999 0.23004,0.53 0.53003,0.53 z m -7.92999,0.85 c -0.12,0 -0.28003,-0.13 -0.28003,-0.27002 V 429.09 c 0,-0.23999 0.15002,-0.32001 0.41003,-0.32001 H 911.56 c 0.22003,0 0.36999,0.05 0.36999,0.37002 V 431.06 c 0,0.20999 -0.11999,0.39001 -0.36999,0.39001 z m 7.90997,2.98999 c 0.27002,0 0.5,-0.26999 0.5,-0.53 0,-0.30001 -0.17999,-0.51001 -0.5,-0.51001 -0.29998,0 -0.51001,0.17002 -0.51001,0.52002 0,0.23999 0.21003,0.51999 0.51001,0.51999 z m -7.80999,0.79999 c -0.23999,0 -0.38001,-0.13 -0.38001,-0.31998 v -2.03 c 0,-0.20001 0.12,-0.33001 0.37,-0.33001 h 9.13 c 0.32001,0 0.45001,0.09 0.45001,0.41 v 1.76999 c 0,0.32001 -0.13,0.5 -0.41998,0.5 z"
           style="fill:#ffffff;fill-opacity:1;fill-rule:nonzero;stroke:none"
           id="path1755" />
      </g>
      <g
         id="g1757"
         transform="matrix(0.25387936,0,0,0.25387936,-296.52628,-5.0945853)">
        <text
           transform="translate(936,430)"
           style="font-variant:normal;font-weight:normal;font-size:12px;font-family:Helvetica;-inkscape-font-specification:Helvetica;writing-mode:lr-tb;fill:#000000;fill-opacity:1;fill-rule:nonzero;stroke:none"
           id="text1761"><tspan
             x="0 7.7929688 10.458984 13.792969 20.466797 26.466797 33.140625 39.814453 46.488281 49.822266 56.496094 63.169922 67.166016 70.5 78.503906 85.177734 91.851562"
             y="0"
             sodipodi:role="line"
             id="tspan1759">ViteTogether Pool</tspan></text>
        <text
           transform="translate(936,444)"
           style="font-variant:normal;font-weight:normal;font-size:12px;font-family:Helvetica;-inkscape-font-specification:Helvetica;writing-mode:lr-tb;fill:#999999;fill-opacity:1;fill-rule:nonzero;stroke:none"
           id="text1765"><tspan
             x="0 7.7929688 10.458984 13.792969 20.466797 23.800781 31.804688 41.800781 48.474609 52.470703 55.804688 59.138672 67.804688 74.478516 81.152344 84.486328 88.482422 95.15625 101.15625"
             y="0"
             sodipodi:role="line"
             id="tspan1763">Vite Smart Contract</tspan></text>
      </g>
      <g
         id="g1767"
         transform="matrix(0.25387936,0,0,0.25387936,-296.39934,-4.9676456)">
        <path
           d="m 917,432 c 0,0.65659 -0.064,1.30688 -0.19214,1.9509 -0.12817,0.64398 -0.31787,1.26928 -0.56915,1.87588 -0.25128,0.60663 -0.55933,1.18292 -0.92407,1.72885 -0.36481,0.54596 -0.77936,1.05109 -1.2436,1.51541 -0.46429,0.4643 -0.96948,0.87885 -1.51544,1.24363 -0.54596,0.36477 -1.12225,0.67279 -1.72888,0.92407 -0.60663,0.25125 -1.23187,0.44095 -1.87585,0.56906 -0.64399,0.12811 -1.29425,0.19217 -1.95087,0.1922 -0.65668,-3e-5 -1.30701,-0.0641 -1.95099,-0.19217 -0.64404,-0.12814 -1.26935,-0.31784 -1.87598,-0.56909 -0.60662,-0.25128 -1.18292,-0.55933 -1.72888,-0.9241 -0.54596,-0.36478 -1.05102,-0.7793 -1.51526,-1.2436 -0.46435,-0.46432 -0.8789,-0.96945 -1.24365,-1.51541 -0.36481,-0.54593 -0.67285,-1.12222 -0.92413,-1.72885 -0.25128,-0.6066 -0.44098,-1.2319 -0.56903,-1.87591 C 897.06403,433.30688 897,432.65659 897,432 c 0,-0.65665 0.064,-1.30695 0.19214,-1.95096 0.12805,-0.64401 0.31775,-1.26932 0.56903,-1.87594 0.25122,-0.60663 0.55926,-1.18293 0.92407,-1.72889 0.36475,-0.54593 0.7793,-1.05102 1.24365,-1.51532 0.46424,-0.46432 0.9693,-0.87887 1.51526,-1.24365 0.54596,-0.36481 1.12226,-0.67282 1.72888,-0.92407 0.60663,-0.25125 1.23194,-0.44095 1.87598,-0.56903 C 905.69299,422.06406 906.34332,422 907,422 c 0.65662,0 1.30688,0.0641 1.95087,0.19214 0.64398,0.12808 1.26928,0.31778 1.87591,0.56906 0.60663,0.25125 1.18286,0.55927 1.72882,0.92404 0.54596,0.36478 1.05115,0.77933 1.51544,1.24365 0.46424,0.4643 0.87879,0.96939 1.2436,1.51532 0.3648,0.54596 0.67285,1.12226 0.92413,1.72889 0.25128,0.60662 0.44098,1.23193 0.56909,1.87594 C 916.93597,430.69305 917,431.34335 917,432 Z"
           style="fill:#ffffff;fill-opacity:1;fill-rule:nonzero;stroke:none"
           id="path1769" />
      </g>
      <g
         id="g1771"
         transform="matrix(0.08466666,0,0,0.08466666,-296.52628,-5.0945853)">
        <g
           id="g1773"
           clip-path="url(#clipPath1777)">
          <g
             id="g1779"
             transform="matrix(0.08954592,0,0,0.08967667,2689.1355,1265.704)">
            <path
               d="m 502.03625,121.99118 -79.68844,18.26204 C 347.61572,239.30161 272.8851,338.35098 198.15504,437.40079 L 109.91836,211.85341 48.41,225.95 176.52344,553.42706 402.39807,254.05 l 95.70407,-21.93087 -233.96292,310.09285 20.54505,52.51409 325.51281,-431.43864 -168.4443,38.60391 z"
               style="fill:#007aff;fill-opacity:1;fill-rule:nonzero;stroke:none"
               id="path1781" />
          </g>
        </g>
      </g>
      <g
         id="g1783"
         transform="matrix(0.08466666,0,0,0.08466666,-296.52628,-5.0945853)">
        <g
           id="g1785"
           clip-path="url(#clipPath1789)">
          <g
             id="g1791"
             transform="matrix(2.9985754,0,0,2.9985754,1.4992877,1.4992877)">
            <path
               d="m 870,421 c -20,0 -30,-15.91666 -30,-47.75 0,-31.83334 7.87665,-47.75 23.63,-47.75"
               style="fill:none;stroke:#000000;stroke-width:1;stroke-linecap:butt;stroke-linejoin:miter;stroke-miterlimit:10;stroke-dasharray:none;stroke-opacity:1"
               id="path1793" />
            <path
               d="m 868.88,325.5 -7,3.5 1.75,-3.5 -1.75,-3.5 z"
               style="fill:#000000;fill-opacity:1;fill-rule:nonzero;stroke:none"
               id="path1795" />
            <path
               d="m 868.88,325.5 -7,3.5 1.75,-3.5 -1.75,-3.5 z"
               style="fill:none;stroke:#000000;stroke-width:1;stroke-linecap:butt;stroke-linejoin:miter;stroke-miterlimit:10;stroke-dasharray:none;stroke-opacity:1"
               id="path1797" />
          </g>
          <g
             id="g1799"
             transform="scale(2.9985754)">
            <text
               transform="translate(849.21875,382)"
               style="font-variant:normal;font-weight:normal;font-size:15px;font-family:Helvetica;-inkscape-font-specification:Helvetica;writing-mode:lr-tb;fill:#000000;fill-opacity:1;fill-rule:nonzero;stroke:none"
               id="text1805"><tspan
                 x="0 8.3422852 12.509766 16.677246 25.861816 34.204102 38.371582 46.713867 50.881348 55.048828 63.391113 68.38623 72.553711 82.558594 92.563477"
                 y="0"
                 sodipodi:role="line"
                 id="tspan1803">2. Vote for SBP</tspan></text>
          </g>
          <g
             id="g1807"
             transform="matrix(2.9985754,0,0,2.9985754,1.4992877,1.4992877)">
            <path
               d="m 1090,325.5 c 20,0 30,16 30,48 0,32 -7.8767,48 -23.63,48"
               style="fill:none;stroke:#000000;stroke-width:1;stroke-linecap:butt;stroke-linejoin:miter;stroke-miterlimit:10;stroke-dasharray:none;stroke-opacity:1"
               id="path1809" />
            <path
               d="m 1091.12,421.5 7,-3.5 -1.75,3.5 1.75,3.5 z"
               style="fill:#000000;fill-opacity:1;fill-rule:nonzero;stroke:none"
               id="path1811" />
            <path
               d="m 1091.12,421.5 7,-3.5 -1.75,3.5 1.75,3.5 z"
               style="fill:none;stroke:#000000;stroke-width:1;stroke-linecap:butt;stroke-linejoin:miter;stroke-miterlimit:10;stroke-dasharray:none;stroke-opacity:1"
               id="path1813" />
          </g>
          <g
             id="g1815"
             transform="scale(2.9985754)">
            <text
               transform="translate(987.14063,383)"
               style="font-variant:normal;font-weight:normal;font-size:15px;font-family:Helvetica;-inkscape-font-specification:Helvetica;writing-mode:lr-tb;fill:#000000;fill-opacity:1;fill-rule:nonzero;stroke:none"
               id="text1821"><tspan
                 x="0 8.3422852 12.509766 16.677246 27.509766 35.852051 43.352051 51.694336 55.026855 62.526855 70.869141 75.036621 85.869141 94.211426 105.04395 113.38623 118.38135"
                 y="0"
                 sodipodi:role="line"
                 id="tspan1819">3. Receive Reward</tspan></text>
          </g>
          <g
             id="g1823"
             transform="matrix(2.9985754,0,0,2.9985754,1.4992877,1.4992877)">
            <path
               d="m 870,290 h 220 v 71 H 870 Z"
               style="fill:#dae8fc;fill-opacity:1;fill-rule:nonzero;stroke:none"
               id="path1825" />
            <path
               d="m 870,290 h 220 v 71 H 870 Z"
               style="fill:none;stroke:#6c8ebf;stroke-width:1;stroke-linecap:butt;stroke-linejoin:miter;stroke-miterlimit:10;stroke-dasharray:none;stroke-opacity:1"
               id="path1827" />
          </g>
          <g
             id="g1829"
             transform="translate(2643,901)">
            <g
               id="g1831" />
            <g
               id="g1845">
              <g
                 clip-path="url(#clipPath1835)"
                 opacity="0.2471"
                 id="g1843">
                <g
                   transform="matrix(2.9985754,0,0,2.9985754,-2635.5037,-890.505)"
                   id="g1841">
                  <path
                     d="m 881,298 h 198 c 0.2761,0 0.5118,0.0976 0.707,0.29288 0.1952,0.19528 0.2929,0.43097 0.293,0.70712 v 49.5 c -10e-5,0.27612 -0.098,0.51181 -0.293,0.70706 -0.1952,0.19528 -0.4309,0.29291 -0.707,0.29294 H 881 c -0.27618,-3e-5 -0.51196,-0.0977 -0.70721,-0.29294 C 880.09753,349.01181 879.99994,348.77612 880,348.5 V 299 c -6e-5,-0.27615 0.0975,-0.51184 0.29279,-0.70712 C 880.48804,298.09763 880.72382,298 881,298 Z"
                     style="fill:#000000;fill-opacity:1;fill-rule:nonzero;stroke:none"
                     id="path1837" />
                  <path
                     d="m 881,298 h 198 c 0.2761,0 0.5118,0.0976 0.707,0.29288 0.1952,0.19528 0.2929,0.43097 0.293,0.70712 v 49.5 c -10e-5,0.27612 -0.098,0.51181 -0.293,0.70706 -0.1952,0.19528 -0.4309,0.29291 -0.707,0.29294 H 881 c -0.27618,-3e-5 -0.51196,-0.0977 -0.70721,-0.29294 C 880.09753,349.01181 879.99994,348.77612 880,348.5 V 299 c -6e-5,-0.27615 0.0975,-0.51184 0.29279,-0.70712 C 880.48804,298.09763 880.72382,298 881,298 Z"
                     style="fill:none;stroke:#000000;stroke-width:1;stroke-linecap:butt;stroke-linejoin:miter;stroke-miterlimit:10;stroke-dasharray:none;stroke-opacity:1"
                     id="path1839" />
                </g>
              </g>
            </g>
          </g>
          <g
             id="g1847"
             transform="matrix(2.9985754,0,0,2.9985754,1.4992877,1.4992877)">
            <path
               d="m 881,298 h 198 c 0.2761,0 0.5118,0.0976 0.707,0.29288 0.1952,0.19528 0.2929,0.43097 0.293,0.70712 v 49.5 c -10e-5,0.27612 -0.098,0.51181 -0.293,0.70706 -0.1952,0.19528 -0.4309,0.29291 -0.707,0.29294 H 881 c -0.27618,-3e-5 -0.51196,-0.0977 -0.70721,-0.29294 C 880.09753,349.01181 879.99994,348.77612 880,348.5 V 299 c -6e-5,-0.27615 0.0975,-0.51184 0.29279,-0.70712 C 880.48804,298.09763 880.72382,298 881,298 Z"
               style="fill:#ffffff;fill-opacity:1;fill-rule:nonzero;stroke:none"
               id="path1849" />
            <path
               d="m 881,298 h 198 c 0.2761,0 0.5118,0.0976 0.707,0.29288 0.1952,0.19528 0.2929,0.43097 0.293,0.70712 v 49.5 c -10e-5,0.27612 -0.098,0.51181 -0.293,0.70706 -0.1952,0.19528 -0.4309,0.29291 -0.707,0.29294 H 881 c -0.27618,-3e-5 -0.51196,-0.0977 -0.70721,-0.29294 C 880.09753,349.01181 879.99994,348.77612 880,348.5 V 299 c -6e-5,-0.27615 0.0975,-0.51184 0.29279,-0.70712 C 880.48804,298.09763 880.72382,298 881,298 Z"
               style="fill:none;stroke:#dddddd;stroke-width:1;stroke-linecap:butt;stroke-linejoin:miter;stroke-miterlimit:10;stroke-dasharray:none;stroke-opacity:1"
               id="path1851" />
            <path
               d="m 901.19,337.01001 c -0.98999,0 -1.92999,-0.54001 -2.41998,-1.56 L 893,325.04999 c -0.52002,-0.90998 -0.44,-1.97 0,-2.72 l 5.82001,-10.40998 c 0.48999,-0.94 1.38,-1.43002 2.27002,-1.43002 h 11.69 c 0.86999,0 1.72998,0.44 2.23999,1.33002 l 5.79999,10.38998 c 0.70001,1.10001 0.46002,2.27002 0.06,2.92001 l -5.76,10.34 c -0.39002,0.82999 -1.26001,1.54001 -2.38001,1.54001 h -11.54999 z"
               style="fill:#5184f3;fill-opacity:1;fill-rule:nonzero;stroke:none"
               id="path1853" />
            <path
               d="m 911.88,337.01001 -9.79998,-10.11002 1.55999,-2.38998 -1.55999,-1.40002 9.76001,-2.5 7.33996,7.57 L 915.12,335.47 c -0.39002,0.82999 -1.26001,1.54001 -2.38001,1.54001 z"
               style="fill:#000000;fill-opacity:0.0706;fill-rule:nonzero;stroke:none"
               id="path1855" />
            <path
               d="m 910.19,322.35001 c 0.27002,0 0.45001,-0.23001 0.45001,-0.5 0,-0.4 -0.23004,-0.53 -0.44,-0.53 -0.35998,0 -0.54004,0.22998 -0.54004,0.5 0,0.30999 0.23004,0.53 0.53003,0.53 z m -7.92999,0.85 c -0.12,0 -0.28003,-0.13 -0.28003,-0.27002 V 320.84 c 0,-0.23999 0.15002,-0.32001 0.41003,-0.32001 H 911.56 c 0.22003,0 0.36999,0.05 0.36999,0.37002 V 322.81 c 0,0.20999 -0.11999,0.39001 -0.36999,0.39001 z m 7.90997,2.98999 c 0.27002,0 0.5,-0.26999 0.5,-0.53 0,-0.30001 -0.17999,-0.51001 -0.5,-0.51001 -0.29998,0 -0.51001,0.17002 -0.51001,0.52002 0,0.23999 0.21003,0.51999 0.51001,0.51999 z m -7.80999,0.79999 c -0.23999,0 -0.38001,-0.13 -0.38001,-0.31998 v -2.03 c 0,-0.20001 0.12,-0.33001 0.37,-0.33001 h 9.13 c 0.32001,0 0.45001,0.09 0.45001,0.41 v 1.76999 c 0,0.32001 -0.13,0.5 -0.41998,0.5 z"
               style="fill:#ffffff;fill-opacity:1;fill-rule:nonzero;stroke:none"
               id="path1857" />
          </g>
          <g
             id="g1859"
             transform="scale(2.9985754)">
            <text
               transform="translate(936,322)"
               style="font-variant:normal;font-weight:normal;font-size:12px;font-family:Helvetica;-inkscape-font-specification:Helvetica;writing-mode:lr-tb;fill:#000000;fill-opacity:1;fill-rule:nonzero;stroke:none"
               id="text1863"><tspan
                 x="0 8.6660156 15.339844"
                 y="0"
                 sodipodi:role="line"
                 id="tspan1861">N4Y</tspan></text>
            <text
               transform="translate(936,336)"
               style="font-variant:normal;font-weight:normal;font-size:12px;font-family:Helvetica;-inkscape-font-specification:Helvetica;writing-mode:lr-tb;fill:#999999;fill-opacity:1;fill-rule:nonzero;stroke:none"
               id="text1867"><tspan
                 x="0 8.0039062 14.677734 21.351562 28.025391 34.025391 40.699219 47.373047 50.707031 54.041016 62.044922 64.710938 71.384766 77.384766 83.384766 86.71875 94.722656 98.71875 105.39258 112.06641 118.74023 124.74023 131.41406"
                 y="0"
                 sodipodi:role="line"
                 id="tspan1865">Snapshot Block Producer</tspan></text>
          </g>
        </g>
      </g>
    </g>
  </g>
</svg>
