<?xml version="1.0" encoding="UTF-8" standalone="no"?>
<!-- Created with Inkscape (http://www.inkscape.org/) -->

<svg
   width="360pt"
   height="640pt"
   viewBox="0 0 127 225.77778"
   version="1.1"
   id="svg5"
   inkscape:version="1.1 (c4e8f9e, 2021-05-24)"
   sodipodi:docname="6.svg"
   xmlns:inkscape="http://www.inkscape.org/namespaces/inkscape"
   xmlns:sodipodi="http://sodipodi.sourceforge.net/DTD/sodipodi-0.dtd"
   xmlns="http://www.w3.org/2000/svg"
   xmlns:svg="http://www.w3.org/2000/svg">
  <sodipodi:namedview
     id="namedview7"
     pagecolor="#ffffff"
     bordercolor="#666666"
     borderopacity="1.0"
     inkscape:pageshadow="2"
     inkscape:pageopacity="0.0"
     inkscape:pagecheckerboard="0"
     inkscape:document-units="mm"
     showgrid="false"
     units="pt"
     width="360pt"
     inkscape:zoom="0.67081229"
     inkscape:cx="230.31778"
     inkscape:cy="477.77896"
     inkscape:window-width="1440"
     inkscape:window-height="855"
     inkscape:window-x="0"
     inkscape:window-y="23"
     inkscape:window-maximized="0"
     inkscape:current-layer="layer1" />
  <defs
     id="defs2">
    <rect
       x="37.26825"
       y="372.6825"
       width="387.5898"
       height="214.66512"
       id="rect2375" />
    <style
       id="style824">.cls-1{fill:#007aff;}</style>
    <clipPath
       clipPathUnits="userSpaceOnUse"
       id="clipPath1192">
      <path
         d="M 0,0 H 606 V 160 H 0 Z"
         id="path1190" />
    </clipPath>
    <clipPath
       clipPathUnits="userSpaceOnUse"
       id="clipPath1232">
      <path
         d="M 0,0 H 606 V 160 H 0 Z"
         id="path1230" />
    </clipPath>
    <clipPath
       clipPathUnits="userSpaceOnUse"
       id="clipPath1272">
      <path
         d="M 0,0 H 606 V 160 H 0 Z"
         id="path1270" />
    </clipPath>
    <clipPath
       clipPathUnits="userSpaceOnUse"
       id="clipPath1312">
      <path
         d="M 0,0 H 606 V 160 H 0 Z"
         id="path1310" />
    </clipPath>
    <clipPath
       clipPathUnits="userSpaceOnUse"
       id="clipPath1392">
      <path
         d="M 0,0 H 606 V 159 H 0 Z"
         id="path1390" />
    </clipPath>
    <clipPath
       clipPathUnits="userSpaceOnUse"
       id="clipPath1432">
      <path
         d="M 0,0 H 607 V 160 H 0 Z"
         id="path1430" />
    </clipPath>
    <clipPath
       clipPathUnits="userSpaceOnUse"
       id="clipPath1013">
      <path
         d="M 0,0 H 3508.3333 V 2485.8191 H 0 Z"
         clip-rule="evenodd"
         id="path1011" />
    </clipPath>
    <clipPath
       clipPathUnits="userSpaceOnUse"
       id="clipPath1027">
      <path
         d="M 0,0 H 3508.3333 V 2482.8206 H 0 Z"
         clip-rule="evenodd"
         id="path1025" />
    </clipPath>
    <clipPath
       clipPathUnits="userSpaceOnUse"
       id="clipPath1045">
      <path
         d="M 0,0 H 607 V 160 H 0 Z"
         id="path1043" />
    </clipPath>
    <clipPath
       clipPathUnits="userSpaceOnUse"
       id="clipPath1085">
      <path
         d="M 0,0 H 607 V 160 H 0 Z"
         id="path1083" />
    </clipPath>
    <clipPath
       clipPathUnits="userSpaceOnUse"
       id="clipPath1125">
      <path
         d="M 0,0 H 607 V 160 H 0 Z"
         id="path1123" />
    </clipPath>
    <clipPath
       clipPathUnits="userSpaceOnUse"
       id="clipPath1165">
      <path
         d="M 0,0 H 607 V 160 H 0 Z"
         id="path1163" />
    </clipPath>
    <clipPath
       clipPathUnits="userSpaceOnUse"
       id="clipPath1245">
      <path
         d="M 0,0 H 607 V 159 H 0 Z"
         id="path1243" />
    </clipPath>
    <clipPath
       clipPathUnits="userSpaceOnUse"
       id="clipPath1285">
      <path
         d="M 0,0 H 607 V 160 H 0 Z"
         id="path1283" />
    </clipPath>
    <clipPath
       clipPathUnits="userSpaceOnUse"
       id="clipPath1529">
      <path
         d="M 0,0 H 606 V 160 H 0 Z"
         id="path1527" />
    </clipPath>
    <clipPath
       clipPathUnits="userSpaceOnUse"
       id="clipPath1569">
      <path
         d="M 0,0 H 606 V 160 H 0 Z"
         id="path1567" />
    </clipPath>
    <clipPath
       clipPathUnits="userSpaceOnUse"
       id="clipPath1609">
      <path
         d="M 0,0 H 606 V 160 H 0 Z"
         id="path1607" />
    </clipPath>
    <clipPath
       clipPathUnits="userSpaceOnUse"
       id="clipPath1649">
      <path
         d="M 0,0 H 606 V 160 H 0 Z"
         id="path1647" />
    </clipPath>
    <clipPath
       clipPathUnits="userSpaceOnUse"
       id="clipPath1733">
      <path
         d="M 0,0 H 606 V 163 H 0 Z"
         id="path1731" />
    </clipPath>
    <clipPath
       clipPathUnits="userSpaceOnUse"
       id="clipPath1777">
      <path
         d="m 2693.4705,1276.6436 h 50.3057 v 42.3936 h -50.3057 z"
         clip-rule="evenodd"
         id="path1775" />
    </clipPath>
    <clipPath
       clipPathUnits="userSpaceOnUse"
       id="clipPath1789">
      <path
         d="M 0,0 H 3508.3333 V 2482.8206 H 0 Z"
         clip-rule="evenodd"
         id="path1787" />
    </clipPath>
    <clipPath
       clipPathUnits="userSpaceOnUse"
       id="clipPath1835">
      <path
         d="M 0,0 H 606 V 159 H 0 Z"
         id="path1833" />
    </clipPath>
    <clipPath
       clipPathUnits="userSpaceOnUse"
       id="clipPath2766">
      <path
         d="M 0,0 H 3508.3333 V 2485.8191 H 0 Z"
         clip-rule="evenodd"
         id="path2764" />
    </clipPath>
    <clipPath
       clipPathUnits="userSpaceOnUse"
       id="clipPath2778">
      <path
         d="M 0,0 H 3508.3333 V 2482.8206 H 0 Z"
         clip-rule="evenodd"
         id="path2776" />
    </clipPath>
    <clipPath
       clipPathUnits="userSpaceOnUse"
       id="clipPath2940">
      <path
         d="M 0,0 H 187 V 187 H 0 Z"
         id="path2938" />
    </clipPath>
    <clipPath
       clipPathUnits="userSpaceOnUse"
       id="clipPath2960">
      <path
         d="m 1136.2205,1399.5551 h 152.8067 v 128.7412 h -152.8067 z"
         clip-rule="evenodd"
         id="path2958" />
    </clipPath>
  </defs>
  <g
     inkscape:label="Layer 1"
     inkscape:groupmode="layer"
     id="layer1">
    <g
       id="g2772"
       transform="matrix(0.12431726,0,0,0.12431726,-44.766714,-48.638714)">
      <g
         id="g2774"
         clip-path="url(#clipPath2778)">
        <g
           id="g2780"
           transform="matrix(2.9985754,0,0,2.9985754,-3506.834,1.4992877)">
          <path
             d="m 1620,519.88 -95,0.85999 c -0.25,-22.66 9.64,-44.47 27.48,-60.56998 C 1570.33,444.06 1594.64,435 1620,435 Z"
             style="fill:#d5e8d4;fill-opacity:1;fill-rule:nonzero;stroke:none"
             id="path2782" />
          <path
             d="m 1300,360.5 h 320 v 160 h -320 z"
             style="fill:none;stroke:#000000;stroke-width:1;stroke-linecap:butt;stroke-linejoin:miter;stroke-miterlimit:10;stroke-dasharray:none;stroke-opacity:1"
             id="path2784" />
          <path
             d="m 1300,161 h 320 v 160 h -320 z"
             style="fill:none;stroke:#000000;stroke-width:1;stroke-linecap:butt;stroke-linejoin:miter;stroke-miterlimit:10;stroke-dasharray:none;stroke-opacity:1"
             id="path2786" />
          <path
             d="m 1457,251 -6.33,49.60001 C 1430.34,298 1413.65,283.26001 1408.5601,263.39999 1403.48,243.55 1411.03,222.60001 1427.61,210.55 Z"
             style="fill:#dae8fc;fill-opacity:1;fill-rule:nonzero;stroke:none"
             id="path2788" />
          <path
             d="m 1457,251 -6.33,49.60001 C 1430.34,298 1413.65,283.26001 1408.5601,263.39999 1403.48,243.55 1411.03,222.60001 1427.61,210.55 Z"
             style="fill:none;stroke:#6c8ebf;stroke-width:1;stroke-linecap:butt;stroke-linejoin:miter;stroke-miterlimit:10;stroke-dasharray:none;stroke-opacity:1"
             id="path2790" />
          <path
             d="m 1474,250 -11.67,-48.62 c 19.25,-4.62001 39.41,2.54999 51.42,18.29 12.01,15.74 13.6,37.08 4.0601,54.43001 C 1508.27,291.44 1489.39,301.53 1469.67,299.81 Z"
             style="fill:#f8cecc;fill-opacity:1;fill-rule:nonzero;stroke:none"
             id="path2792" />
          <path
             d="m 1474,250 -11.67,-48.62 c 19.25,-4.62001 39.41,2.54999 51.42,18.29 12.01,15.74 13.6,37.08 4.0601,54.43001 C 1508.27,291.44 1489.39,301.53 1469.67,299.81 Z"
             style="fill:none;stroke:#b85450;stroke-width:1;stroke-linecap:butt;stroke-linejoin:miter;stroke-miterlimit:10;stroke-dasharray:none;stroke-opacity:1"
             id="path2794" />
          <path
             d="m 1463,245 -29.76,-40.17999 c 5.6,-4.14002 12,-7.08 18.8,-8.60001 z"
             style="fill:#f5f5f5;fill-opacity:1;fill-rule:nonzero;stroke:none"
             id="path2796" />
          <path
             d="m 1463,245 -29.76,-40.17999 c 5.6,-4.14002 12,-7.08 18.8,-8.60001 z"
             style="fill:none;stroke:#666666;stroke-width:1;stroke-linecap:butt;stroke-linejoin:miter;stroke-miterlimit:10;stroke-dasharray:none;stroke-opacity:1"
             id="path2798" />
        </g>
        <g
           id="g2800"
           transform="matrix(2.9985754,0,0,2.9985754,-3508.3333,0)">
          <text
             transform="translate(1565,242)"
             style="font-variant:normal;font-weight:normal;font-size:15px;font-family:Helvetica;-inkscape-font-specification:Helvetica;writing-mode:lr-tb;fill:#333333;fill-opacity:1;fill-rule:nonzero;stroke:none"
             id="text2804"><tspan
               x="0 10.004883 20.009766"
               y="0"
               sodipodi:role="line"
               id="tspan2802">SBP</tspan></text>
          <text
             transform="translate(1549.9844,260)"
             style="font-variant:normal;font-weight:normal;font-size:15px;font-family:Helvetica;-inkscape-font-specification:Helvetica;writing-mode:lr-tb;fill:#333333;fill-opacity:1;fill-rule:nonzero;stroke:none"
             id="text2808"><tspan
               x="0 10.83252 19.174805 26.674805 35.01709 43.359375 51.70166"
               y="0"
               sodipodi:role="line"
               id="tspan2806">Revenue</tspan></text>
        </g>
        <g
           id="g2810"
           transform="matrix(2.9985754,0,0,2.9985754,-3506.834,1.4992877)">
          <path
             d="m 1550,246 c 0,0 -4.8767,0 -14.63,0"
             style="fill:none;stroke:#000000;stroke-width:1;stroke-linecap:butt;stroke-linejoin:miter;stroke-miterlimit:10;stroke-dasharray:none;stroke-opacity:1"
             id="path2812" />
          <path
             d="m 1530.12,246 7,-3.5 -1.75,3.5 1.75,3.5 z"
             style="fill:#000000;fill-opacity:1;fill-rule:nonzero;stroke:none"
             id="path2814" />
          <path
             d="m 1530.12,246 7,-3.5 -1.75,3.5 1.75,3.5 z"
             style="fill:none;stroke:#000000;stroke-width:1;stroke-linecap:butt;stroke-linejoin:miter;stroke-miterlimit:10;stroke-dasharray:none;stroke-opacity:1"
             id="path2816" />
        </g>
        <g
           id="g2818"
           transform="matrix(2.9985754,0,0,2.9985754,-3508.3333,0)">
          <text
             transform="translate(1330.4844,260)"
             style="font-variant:normal;font-weight:normal;font-size:15px;font-family:Helvetica;-inkscape-font-specification:Helvetica;writing-mode:lr-tb;fill:#333333;fill-opacity:1;fill-rule:nonzero;stroke:none"
             id="text2822"><tspan
               x="0 9.1845703 17.526855 21.694336 30.036621"
               y="0"
               sodipodi:role="line"
               id="tspan2820">Voter</tspan></text>
          <text
             transform="translate(1314.6563,278)"
             style="font-variant:normal;font-weight:normal;font-size:15px;font-family:Helvetica;-inkscape-font-specification:Helvetica;writing-mode:lr-tb;fill:#333333;fill-opacity:1;fill-rule:nonzero;stroke:none"
             id="text2826"><tspan
               x="0 10.004883 18.347168 25.847168 38.342285 46.68457 55.026855 59.194336"
               y="0"
               sodipodi:role="line"
               id="tspan2824">Payments</tspan></text>
        </g>
        <g
           id="g2828"
           transform="matrix(2.9985754,0,0,2.9985754,-3506.834,1.4992877)">
          <path
             d="m 1378,264 c 13.3334,0 20.88,-0.0267 22.64,-0.08"
             style="fill:none;stroke:#000000;stroke-width:1;stroke-linecap:butt;stroke-linejoin:miter;stroke-miterlimit:10;stroke-dasharray:none;stroke-opacity:1"
             id="path2830" />
          <path
             d="m 1405.88,263.75 -6.88,3.72 1.64,-3.54999 -1.87,-3.45001 z"
             style="fill:#000000;fill-opacity:1;fill-rule:nonzero;stroke:none"
             id="path2832" />
          <path
             d="m 1405.88,263.75 -6.88,3.72 1.64,-3.54999 -1.87,-3.45001 z"
             style="fill:none;stroke:#000000;stroke-width:1;stroke-linecap:butt;stroke-linejoin:miter;stroke-miterlimit:10;stroke-dasharray:none;stroke-opacity:1"
             id="path2834" />
          <path
             d="m 1395,178 c 30,0 45,4.21001 45,12.63"
             style="fill:none;stroke:#000000;stroke-width:1;stroke-linecap:butt;stroke-linejoin:miter;stroke-miterlimit:10;stroke-dasharray:none;stroke-opacity:1"
             id="path2836" />
          <path
             d="m 1440,195.88 -3.5,-7 3.5,1.75 3.5,-1.75 z"
             style="fill:#000000;fill-opacity:1;fill-rule:nonzero;stroke:none"
             id="path2838" />
          <path
             d="m 1440,195.88 -3.5,-7 3.5,1.75 3.5,-1.75 z"
             style="fill:none;stroke:#000000;stroke-width:1;stroke-linecap:butt;stroke-linejoin:miter;stroke-miterlimit:10;stroke-dasharray:none;stroke-opacity:1"
             id="path2840" />
        </g>
        <g
           id="g2842"
           transform="matrix(2.9985754,0,0,2.9985754,-3508.3333,0)">
          <text
             transform="translate(1327.0625,182)"
             style="font-variant:normal;font-weight:normal;font-size:15px;font-family:Helvetica;-inkscape-font-specification:Helvetica;writing-mode:lr-tb;fill:#333333;fill-opacity:1;fill-rule:nonzero;stroke:none"
             id="text2846"><tspan
               x="0 10.004883 17.504883 25.847168 34.189453 42.531738 50.031738 58.374023"
               y="0"
               sodipodi:role="line"
               id="tspan2844">Expenses</tspan></text>
        </g>
        <g
           id="g2848"
           transform="matrix(2.9985754,0,0,2.9985754,-3506.834,1.4992877)">
          <path
             d="m 1300,140 h 320 v 20 h -320 z"
             style="fill:#f8cecc;fill-opacity:1;fill-rule:nonzero;stroke:none"
             id="path2850" />
          <path
             d="m 1300,140 h 320 v 20 h -320 z"
             style="fill:none;stroke:#b85450;stroke-width:1;stroke-linecap:butt;stroke-linejoin:miter;stroke-miterlimit:10;stroke-dasharray:none;stroke-opacity:1"
             id="path2852" />
        </g>
        <g
           id="g2854"
           transform="matrix(2.9985754,0,0,2.9985754,-3508.3333,0)">
          <text
             transform="translate(1412.0469,156)"
             style="font-variant:normal;font-weight:normal;font-size:15px;font-family:Helvetica;-inkscape-font-specification:Helvetica;writing-mode:lr-tb;fill:#000000;fill-opacity:1;fill-rule:nonzero;stroke:none"
             id="text2858"><tspan
               x="0 10.83252 19.174805 30.007324 38.349609 43.344727 51.687012 55.854492 65.859375 74.20166 82.543945 87.539062"
               y="0"
               sodipodi:role="line"
               id="tspan2856">Reward Share</tspan></text>
        </g>
        <g
           id="g2860"
           transform="matrix(2.9985754,0,0,2.9985754,-3506.834,1.4992877)">
          <path
             d="m 1300,339.5 h 320 v 20 h -320 z"
             style="fill:#d5e8d4;fill-opacity:1;fill-rule:nonzero;stroke:none"
             id="path2862" />
          <path
             d="m 1300,339.5 h 320 v 20 h -320 z"
             style="fill:none;stroke:#82b366;stroke-width:1;stroke-linecap:butt;stroke-linejoin:miter;stroke-miterlimit:10;stroke-dasharray:none;stroke-opacity:1"
             id="path2864" />
        </g>
        <g
           id="g2866"
           transform="matrix(2.9985754,0,0,2.9985754,-3508.3333,0)">
          <text
             transform="translate(1345.6563,356)"
             style="font-variant:normal;font-weight:bold;font-size:15px;font-family:Helvetica;-inkscape-font-specification:Helvetica-Bold;writing-mode:lr-tb;fill:#000000;fill-opacity:1;fill-rule:nonzero;stroke:none"
             id="text2870"><tspan
               x="0 10.83252 19.174805 30.842285 39.18457 45.021973 54.18457 58.352051 68.356934 77.519531 85.861816 91.699219 100.0415 104.20898 115.87646 120.04395 125.03906 134.20166 138.36914 148.11035 152.27783 157.27295 165.61523 173.67188 182.83447 191.99707 200.33936 205.33447 214.49707 222.83936"
               y="0"
               sodipodi:role="line"
               id="tspan2868">Reward Share with ViteTogether</tspan></text>
        </g>
        <g
           id="g2872"
           transform="matrix(2.9985754,0,0,2.9985754,-3506.834,1.4992877)">
          <path
             d="m 1462,454 49.64,-5.95999 c 2.9101,24.19 -12.04,46.94 -35.39,53.88998 -23.34,6.94001 -48.3,-3.94998 -59.08,-25.78998 -10.79,-21.84002 -4.26,-48.27001 15.44,-62.59002 z"
             style="fill:#dae8fc;fill-opacity:1;fill-rule:nonzero;stroke:none"
             id="path2874" />
          <path
             d="m 1462,454 49.64,-5.95999 c 2.9101,24.19 -12.04,46.94 -35.39,53.88998 -23.34,6.94001 -48.3,-3.94998 -59.08,-25.78998 -10.79,-21.84002 -4.26,-48.27001 15.44,-62.59002 z"
             style="fill:none;stroke:#6c8ebf;stroke-width:1;stroke-linecap:butt;stroke-linejoin:miter;stroke-miterlimit:10;stroke-dasharray:none;stroke-opacity:1"
             id="path2876" />
          <path
             d="m 1469,442 -11.67,-48.62 c 13.75,-3.30001 28.26,-0.61999 39.93,7.37 11.66,7.98999 19.4,20.54999 21.2901,34.57001 z"
             style="fill:#f8cecc;fill-opacity:1;fill-rule:nonzero;stroke:none"
             id="path2878" />
          <path
             d="m 1469,442 -11.67,-48.62 c 13.75,-3.30001 28.26,-0.61999 39.93,7.37 11.66,7.98999 19.4,20.54999 21.2901,34.57001 z"
             style="fill:none;stroke:#b85450;stroke-width:1;stroke-linecap:butt;stroke-linejoin:miter;stroke-miterlimit:10;stroke-dasharray:none;stroke-opacity:1"
             id="path2880" />
          <path
             d="m 1463,444.5 -29.76,-40.17999 c 5.6,-4.14002 12,-7.08002 18.8,-8.60001 z"
             style="fill:#f5f5f5;fill-opacity:1;fill-rule:nonzero;stroke:none"
             id="path2882" />
          <path
             d="m 1463,444.5 -29.76,-40.17999 c 5.6,-4.14002 12,-7.08002 18.8,-8.60001 z"
             style="fill:none;stroke:#666666;stroke-width:1;stroke-linecap:butt;stroke-linejoin:miter;stroke-miterlimit:10;stroke-dasharray:none;stroke-opacity:1"
             id="path2884" />
        </g>
        <g
           id="g2886"
           transform="matrix(2.9985754,0,0,2.9985754,-3508.3333,0)">
          <text
             transform="translate(1547,408)"
             style="font-variant:normal;font-weight:normal;font-size:15px;font-family:Helvetica;-inkscape-font-specification:Helvetica;writing-mode:lr-tb;fill:#333333;fill-opacity:1;fill-rule:nonzero;stroke:none"
             id="text2890"><tspan
               x="0 10.004883 20.009766"
               y="0"
               sodipodi:role="line"
               id="tspan2888">SBP</tspan></text>
          <text
             transform="translate(1531.9844,426)"
             style="font-variant:normal;font-weight:normal;font-size:15px;font-family:Helvetica;-inkscape-font-specification:Helvetica;writing-mode:lr-tb;fill:#333333;fill-opacity:1;fill-rule:nonzero;stroke:none"
             id="text2894"><tspan
               x="0 10.83252 19.174805 26.674805 35.01709 43.359375 51.70166"
               y="0"
               sodipodi:role="line"
               id="tspan2892">Revenue</tspan></text>
        </g>
        <g
           id="g2896"
           transform="matrix(2.9985754,0,0,2.9985754,-3506.834,1.4992877)">
          <path
             d="m 1532,412 c 0,0 -4.8767,0 -14.63,0"
             style="fill:none;stroke:#000000;stroke-width:1;stroke-linecap:butt;stroke-linejoin:miter;stroke-miterlimit:10;stroke-dasharray:none;stroke-opacity:1"
             id="path2898" />
          <path
             d="m 1512.12,412 7,-3.5 -1.75,3.5 1.75,3.5 z"
             style="fill:#000000;fill-opacity:1;fill-rule:nonzero;stroke:none"
             id="path2900" />
          <path
             d="m 1512.12,412 7,-3.5 -1.75,3.5 1.75,3.5 z"
             style="fill:none;stroke:#000000;stroke-width:1;stroke-linecap:butt;stroke-linejoin:miter;stroke-miterlimit:10;stroke-dasharray:none;stroke-opacity:1"
             id="path2902" />
        </g>
        <g
           id="g2904"
           transform="matrix(2.9985754,0,0,2.9985754,-3508.3333,0)">
          <text
             transform="translate(1330.4844,460)"
             style="font-variant:normal;font-weight:normal;font-size:15px;font-family:Helvetica;-inkscape-font-specification:Helvetica;writing-mode:lr-tb;fill:#333333;fill-opacity:1;fill-rule:nonzero;stroke:none"
             id="text2908"><tspan
               x="0 9.1845703 17.526855 21.694336 30.036621"
               y="0"
               sodipodi:role="line"
               id="tspan2906">Voter</tspan></text>
          <text
             transform="translate(1314.6563,478)"
             style="font-variant:normal;font-weight:normal;font-size:15px;font-family:Helvetica;-inkscape-font-specification:Helvetica;writing-mode:lr-tb;fill:#333333;fill-opacity:1;fill-rule:nonzero;stroke:none"
             id="text2912"><tspan
               x="0 10.004883 18.347168 25.847168 38.342285 46.68457 55.026855 59.194336"
               y="0"
               sodipodi:role="line"
               id="tspan2910">Payments</tspan></text>
        </g>
        <g
           id="g2914"
           transform="matrix(2.9985754,0,0,2.9985754,-3506.834,1.4992877)">
          <path
             d="m 1378,463.5 c 13.3334,0 20.88,-0.0267 22.64,-0.08"
             style="fill:none;stroke:#000000;stroke-width:1;stroke-linecap:butt;stroke-linejoin:miter;stroke-miterlimit:10;stroke-dasharray:none;stroke-opacity:1"
             id="path2916" />
          <path
             d="m 1405.88,463.25 -6.88,3.72 1.64,-3.54999 -1.87,-3.45001 z"
             style="fill:#000000;fill-opacity:1;fill-rule:nonzero;stroke:none"
             id="path2918" />
          <path
             d="m 1405.88,463.25 -6.88,3.72 1.64,-3.54999 -1.87,-3.45001 z"
             style="fill:none;stroke:#000000;stroke-width:1;stroke-linecap:butt;stroke-linejoin:miter;stroke-miterlimit:10;stroke-dasharray:none;stroke-opacity:1"
             id="path2920" />
          <path
             d="m 1395,377.5 c 30,0 45,4.20999 45,12.63"
             style="fill:none;stroke:#000000;stroke-width:1;stroke-linecap:butt;stroke-linejoin:miter;stroke-miterlimit:10;stroke-dasharray:none;stroke-opacity:1"
             id="path2922" />
          <path
             d="m 1440,395.38 -3.5,-7 3.5,1.75 3.5,-1.75 z"
             style="fill:#000000;fill-opacity:1;fill-rule:nonzero;stroke:none"
             id="path2924" />
          <path
             d="m 1440,395.38 -3.5,-7 3.5,1.75 3.5,-1.75 z"
             style="fill:none;stroke:#000000;stroke-width:1;stroke-linecap:butt;stroke-linejoin:miter;stroke-miterlimit:10;stroke-dasharray:none;stroke-opacity:1"
             id="path2926" />
        </g>
        <g
           id="g2928"
           transform="matrix(2.9985754,0,0,2.9985754,-3508.3333,0)">
          <text
             transform="translate(1327.0625,381)"
             style="font-variant:normal;font-weight:normal;font-size:15px;font-family:Helvetica;-inkscape-font-specification:Helvetica;writing-mode:lr-tb;fill:#333333;fill-opacity:1;fill-rule:nonzero;stroke:none"
             id="text2932"><tspan
               x="0 10.004883 17.504883 25.847168 34.189453 42.531738 50.031738 58.374023"
               y="0"
               sodipodi:role="line"
               id="tspan2930">Expenses</tspan></text>
        </g>
        <g
           id="g2934"
           transform="translate(1125,1368)">
          <g
             id="g2936" />
          <g
             id="g2948">
            <g
               clip-path="url(#clipPath2940)"
               opacity="0.2471"
               id="g2946">
              <g
                 transform="matrix(2.9985754,0,0,2.9985754,-4625.8369,-1357.505)"
                 id="g2944">
                <path
                   d="m 1604.7064,484.33002 c 0,0.99484 -0.049,1.9873 -0.1462,2.97738 -0.097,0.99009 -0.2434,1.973 -0.4376,2.94873 -0.194,0.97574 -0.4355,1.93964 -0.7243,2.89167 -0.2888,0.95205 -0.6236,1.88763 -1.0045,2.80673 -0.3807,0.91916 -0.8055,1.81741 -1.2744,2.69482 -0.4691,0.87738 -0.98,1.72968 -1.5327,2.55686 -0.5526,0.82724 -1.1444,1.62536 -1.7757,2.39444 -0.6311,0.76907 -1.2983,1.50531 -2.0018,2.20877 -0.7035,0.70349 -1.4397,1.37082 -2.2089,2.00198 -0.7691,0.63114 -1.5672,1.22302 -2.3945,1.77573 -0.8271,0.55276 -1.6794,1.06363 -2.5569,1.53259 -0.8773,0.46896 -1.7756,0.89383 -2.6947,1.27451 -0.919,0.38073 -1.8546,0.71551 -2.8066,1.00427 -0.952,0.28882 -1.916,0.53027 -2.8919,0.7243 -0.9757,0.19409 -1.9585,0.33991 -2.9484,0.43744 -0.9902,0.0975 -1.9826,0.1463 -2.9775,0.1463 -0.9948,0 -1.9873,-0.0488 -2.9774,-0.1463 -0.9901,-0.0975 -1.973,-0.24335 -2.9488,-0.43744 -0.9757,-0.19403 -1.9396,-0.43548 -2.8916,-0.7243 -0.9521,-0.28876 -1.8876,-0.62354 -2.8069,-1.00427 -0.9191,-0.38068 -1.8174,-0.80555 -2.6947,-1.27451 -0.8775,-0.46896 -1.7298,-0.97983 -2.557,-1.53256 -0.8271,-0.55271 -1.6251,-1.14462 -2.3943,-1.77576 -0.7691,-0.63113 -1.5054,-1.29843 -2.2089,-2.00192 -0.7035,-0.70346 -1.3707,-1.4397 -2.0018,-2.20877 -0.6312,-0.76908 -1.2232,-1.56723 -1.776,-2.39447 -0.5526,-0.82718 -1.0635,-1.67948 -1.5325,-2.55686 -0.4689,-0.87741 -0.8937,-1.77569 -1.2745,-2.69485 -0.3806,-0.9191 -0.7153,-1.85468 -1.004,-2.80673 -0.2889,-0.95203 -0.5303,-1.91593 -0.7245,-2.89167 -0.194,-0.97573 -0.3398,-1.95861 -0.4373,-2.9487 -0.097,-0.99008 -0.1461,-1.98257 -0.1462,-2.97741 10e-5,-0.99485 0.049,-1.98731 0.1462,-2.97739 0.098,-0.99011 0.2433,-1.97305 0.4373,-2.94882 0.1942,-0.97574 0.4356,-1.93964 0.7245,-2.89166 0.2887,-0.95206 0.6234,-1.88764 1.0041,-2.8068 0.3807,-0.9191 0.8057,-1.81735 1.2747,-2.69476 0.4688,-0.87741 0.9797,-1.72971 1.5323,-2.55695 0.5527,-0.82718 1.1447,-1.62527 1.7759,-2.39434 0.6311,-0.76902 1.2983,-1.50528 2.0018,-2.20878 0.7035,-0.70346 1.4398,-1.37075 2.2089,-2.00192 0.7692,-0.63113 1.5672,-1.22305 2.3943,-1.77582 0.8272,-0.5527 1.6795,-1.06353 2.557,-1.5325 0.8773,-0.46899 1.7756,-0.89386 2.6947,-1.27456 0.9193,-0.38071 1.855,-0.71546 2.807,-1.00425 0.952,-0.28878 1.9159,-0.53021 2.8916,-0.72433 0.9758,-0.19406 1.9587,-0.33987 2.9487,-0.43738 0.9901,-0.0975 1.9826,-0.14627 2.9774,-0.1463 0.9949,3e-5 1.9873,0.0488 2.9775,0.14627 0.9899,0.0975 1.9727,0.24332 2.9484,0.43738 0.9759,0.19412 1.9399,0.43558 2.892,0.72436 0.952,0.28879 1.8876,0.62351 2.8067,1.00422 0.919,0.38073 1.8173,0.8056 2.6948,1.27459 0.8773,0.46897 1.7295,0.97977 2.5566,1.53247 0.8273,0.55274 1.6254,1.14469 2.3945,1.77582 0.7692,0.63117 1.5054,1.29846 2.2089,2.00192 0.7035,0.70353 1.3707,1.43979 2.002,2.20881 0.6311,0.76907 1.223,1.56716 1.7756,2.39434 0.5529,0.82724 1.0637,1.67954 1.5327,2.55695 0.469,0.87741 0.8938,1.77566 1.2744,2.69476 0.3809,0.91916 0.7157,1.85474 1.0044,2.8068 0.2888,0.95202 0.5303,1.91592 0.7243,2.89166 0.1942,0.97577 0.3401,1.95871 0.4376,2.94882 0.098,0.99008 0.1462,1.98254 0.1462,2.97739 z"
                   style="fill:#000000;fill-opacity:1;fill-rule:nonzero;stroke:none"
                   id="path2942" />
              </g>
            </g>
          </g>
        </g>
        <g
           id="g2950"
           transform="matrix(2.9985754,0,0,2.9985754,-3506.834,1.4992877)">
          <path
             d="m 1604.7064,484.33002 c 0,0.99484 -0.049,1.9873 -0.1462,2.97738 -0.097,0.99009 -0.2434,1.973 -0.4376,2.94873 -0.194,0.97574 -0.4355,1.93964 -0.7243,2.89167 -0.2888,0.95205 -0.6236,1.88763 -1.0045,2.80673 -0.3807,0.91916 -0.8055,1.81741 -1.2744,2.69482 -0.4691,0.87738 -0.98,1.72968 -1.5327,2.55686 -0.5526,0.82724 -1.1444,1.62536 -1.7757,2.39444 -0.6311,0.76907 -1.2983,1.50531 -2.0018,2.20877 -0.7035,0.70349 -1.4397,1.37082 -2.2089,2.00198 -0.7691,0.63114 -1.5672,1.22302 -2.3945,1.77573 -0.8271,0.55276 -1.6794,1.06363 -2.5569,1.53259 -0.8773,0.46896 -1.7756,0.89383 -2.6947,1.27451 -0.919,0.38073 -1.8546,0.71551 -2.8066,1.00427 -0.952,0.28882 -1.916,0.53027 -2.8919,0.7243 -0.9757,0.19409 -1.9585,0.33991 -2.9484,0.43744 -0.9902,0.0975 -1.9826,0.1463 -2.9775,0.1463 -0.9948,0 -1.9873,-0.0488 -2.9774,-0.1463 -0.9901,-0.0975 -1.973,-0.24335 -2.9488,-0.43744 -0.9757,-0.19403 -1.9396,-0.43548 -2.8916,-0.7243 -0.9521,-0.28876 -1.8876,-0.62354 -2.8069,-1.00427 -0.9191,-0.38068 -1.8174,-0.80555 -2.6947,-1.27451 -0.8775,-0.46896 -1.7298,-0.97983 -2.557,-1.53256 -0.8271,-0.55271 -1.6251,-1.14462 -2.3943,-1.77576 -0.7691,-0.63113 -1.5054,-1.29843 -2.2089,-2.00192 -0.7035,-0.70346 -1.3707,-1.4397 -2.0018,-2.20877 -0.6312,-0.76908 -1.2232,-1.56723 -1.776,-2.39447 -0.5526,-0.82718 -1.0635,-1.67948 -1.5325,-2.55686 -0.4689,-0.87741 -0.8937,-1.77569 -1.2745,-2.69485 -0.3806,-0.9191 -0.7153,-1.85468 -1.004,-2.80673 -0.2889,-0.95203 -0.5303,-1.91593 -0.7245,-2.89167 -0.194,-0.97573 -0.3398,-1.95861 -0.4373,-2.9487 -0.097,-0.99008 -0.1461,-1.98257 -0.1462,-2.97741 10e-5,-0.99485 0.049,-1.98731 0.1462,-2.97739 0.098,-0.99011 0.2433,-1.97305 0.4373,-2.94882 0.1942,-0.97574 0.4356,-1.93964 0.7245,-2.89166 0.2887,-0.95206 0.6234,-1.88764 1.0041,-2.8068 0.3807,-0.9191 0.8057,-1.81735 1.2747,-2.69476 0.4688,-0.87741 0.9797,-1.72971 1.5323,-2.55695 0.5527,-0.82718 1.1447,-1.62527 1.7759,-2.39434 0.6311,-0.76902 1.2983,-1.50528 2.0018,-2.20878 0.7035,-0.70346 1.4398,-1.37075 2.2089,-2.00192 0.7692,-0.63113 1.5672,-1.22305 2.3943,-1.77582 0.8272,-0.5527 1.6795,-1.06353 2.557,-1.5325 0.8773,-0.46899 1.7756,-0.89386 2.6947,-1.27456 0.9193,-0.38071 1.855,-0.71546 2.807,-1.00425 0.952,-0.28878 1.9159,-0.53021 2.8916,-0.72433 0.9758,-0.19406 1.9587,-0.33987 2.9487,-0.43738 0.9901,-0.0975 1.9826,-0.14627 2.9774,-0.1463 0.9949,3e-5 1.9873,0.0488 2.9775,0.14627 0.9899,0.0975 1.9727,0.24332 2.9484,0.43738 0.9759,0.19412 1.9399,0.43558 2.892,0.72436 0.952,0.28879 1.8876,0.62351 2.8067,1.00422 0.919,0.38073 1.8173,0.8056 2.6948,1.27459 0.8773,0.46897 1.7295,0.97977 2.5566,1.53247 0.8273,0.55274 1.6254,1.14469 2.3945,1.77582 0.7692,0.63117 1.5054,1.29846 2.2089,2.00192 0.7035,0.70353 1.3707,1.43979 2.002,2.20881 0.6311,0.76907 1.223,1.56716 1.7756,2.39434 0.5529,0.82724 1.0637,1.67954 1.5327,2.55695 0.469,0.87741 0.8938,1.77566 1.2744,2.69476 0.3809,0.91916 0.7157,1.85474 1.0044,2.8068 0.2888,0.95202 0.5303,1.91592 0.7243,2.89166 0.1942,0.97577 0.3401,1.95871 0.4376,2.94882 0.098,0.99008 0.1462,1.98254 0.1462,2.97739 z"
             style="fill:#ffffff;fill-opacity:1;fill-rule:nonzero;stroke:none"
             id="path2952" />
        </g>
      </g>
    </g>
    <g
       id="g2954"
       transform="matrix(0.12431726,0,0,0.12431726,-44.766714,-48.638714)">
      <g
         id="g2956"
         clip-path="url(#clipPath2960)">
        <g
           id="g2962"
           transform="matrix(0.27200109,0,0,0.27233014,1123.0529,1366.3337)">
          <path
             d="m 502.03625,121.99118 -79.68844,18.26204 C 347.61572,239.30161 272.8851,338.35098 198.15504,437.40079 L 109.91836,211.85341 48.41,225.95 176.52344,553.42706 402.39807,254.05 l 95.70407,-21.93087 -233.96292,310.09285 20.54505,52.51409 325.51281,-431.43864 -168.4443,38.60391 z"
             style="fill:#007aff;fill-opacity:1;fill-rule:nonzero;stroke:none"
             id="path2964" />
        </g>
      </g>
    </g>
  </g>
</svg>
